<svg width="56" height="56" viewBox="0 0 56 56" fill="none" xmlns="http://www.w3.org/2000/svg">
<g clip-path="url(#clip0_1_81)">
<path d="M46 0.5H10C4.75329 0.5 0.5 4.75329 0.5 10V46C0.5 51.2467 4.75329 55.5 10 55.5H46C51.2467 55.5 55.5 51.2467 55.5 46V10C55.5 4.75329 51.2467 0.5 46 0.5Z" fill="#FFF0E8" stroke="#FF5C00"/>
<path d="M16.5763 30.0557C16.318 30.1768 16.2041 30.4819 16.3192 30.7426L17.4988 33.275C17.5568 33.4011 17.6625 33.4993 17.7926 33.5477C17.8495 33.5684 17.91 33.5791 17.9707 33.5791C18.0467 33.5797 18.1218 33.5635 18.1909 33.5321L27.1038 29.369L26.2965 37.81C26.2809 37.9761 26.345 38.1395 26.4693 38.2505C26.86 38.5739 27.347 38.7581 27.8537 38.7747C27.9934 38.7745 28.1323 38.757 28.2677 38.7225C28.9913 38.5337 29.5523 37.8889 29.935 36.7877L33.4425 26.4017L40.3892 23.1614C42.434 22.2073 43.4877 20.2727 42.7801 18.7627C42.3785 17.9734 41.6093 17.4365 40.7301 17.3313C39.7532 17.1839 38.7547 17.3375 37.8675 17.772L29.851 21.531L21.2319 18.1598C20.1465 17.751 19.2868 17.7615 18.6839 18.1967C18.1781 18.6118 17.8903 19.2357 17.9026 19.89C17.9078 20.056 17.9914 20.2095 18.128 20.3044L23.9318 24.2941L20.608 25.867L15.0346 24.4512C14.8062 24.395 14.5685 24.498 14.4527 24.7029L13.0635 27.2036C12.9915 27.3361 12.9801 27.4934 13.0325 27.6349C13.0846 27.7766 13.1952 27.8887 13.3362 27.9429L17.4624 29.647L16.5763 30.0557ZM18.9772 19.6279C19.008 19.4063 19.1202 19.2045 19.2919 19.0616C19.5909 18.8466 20.1361 18.8781 20.8648 19.1506L28.5405 22.1444L25.0381 23.7802L18.9772 19.6279ZM14.2588 27.1985L15.171 25.5785L20.5345 26.91C20.65 26.9393 20.772 26.9283 20.8807 26.8788L38.3132 18.7366C39.0063 18.3947 39.7868 18.2703 40.5519 18.38C41.0885 18.4294 41.5664 18.739 41.8312 19.2083C42.2713 20.1522 41.4063 21.531 39.9434 22.2125L33.9037 25.0439L34.2708 23.9583C34.3636 23.679 34.2121 23.3773 33.9328 23.2847C33.6532 23.1921 33.3516 23.3436 33.259 23.6229L28.944 36.4625C28.6871 37.1915 28.3672 37.6267 28.0108 37.7208C27.79 37.7633 27.5614 37.72 27.3711 37.6005L28.4198 26.5902C28.4472 26.3007 28.2349 26.0438 27.9451 26.0164C27.6557 25.9886 27.3987 26.2012 27.3711 26.4907L27.2087 28.1736L18.2117 32.3679L17.4729 30.795L18.9511 30.1031C19.1413 30.0192 19.264 29.8311 19.264 29.6234C19.264 29.4155 19.1413 29.2273 18.9511 29.1436L14.2588 27.1985Z" fill="#FF5C00"/>
</g>
<defs>
<clipPath id="clip0_1_81">
<rect width="56" height="56" fill="white"/>
</clipPath>
</defs>
</svg>
