<svg width="20" height="20" viewBox="0 0 20 20" fill="none" xmlns="http://www.w3.org/2000/svg">
<g clip-path="url(#clip0_5_145)">
<path d="M10 20C15.5228 20 20 15.5228 20 10C20 4.47715 15.5228 0 10 0C4.47715 0 0 4.47715 0 10C0 15.5228 4.47715 20 10 20Z" fill="#F1E3FF"/>
<mask id="mask0_5_145" style="mask-type:luminance" maskUnits="userSpaceOnUse" x="5" y="5" width="10" height="10">
<path d="M15 5H5V15H15V5Z" fill="white"/>
</mask>
<g mask="url(#mask0_5_145)">
<path d="M10 5C9.0111 5 8.0444 5.29324 7.22215 5.84265C6.39991 6.39206 5.75904 7.17295 5.3806 8.08658C5.00217 9.00021 4.90315 10.0055 5.09608 10.9755C5.289 11.9454 5.76521 12.8363 6.46447 13.5355C7.16373 14.2348 8.05465 14.711 9.02455 14.9039C9.99446 15.0969 10.9998 14.9978 11.9134 14.6194C12.827 14.241 13.6079 13.6001 14.1573 12.7779C14.7068 11.9556 15 10.9889 15 10C14.9986 8.67436 14.4713 7.40342 13.534 6.46605C12.5966 5.52868 11.3256 5.00143 10 5ZM13.6029 7.91667H12.2608C11.9604 7.22041 11.5648 6.5692 11.0854 5.98167C12.1465 6.27039 13.051 6.96561 13.6029 7.91667ZM11.875 10C11.8716 10.4242 11.8047 10.8456 11.6767 11.25H8.32334C8.19527 10.8456 8.12842 10.4242 8.125 10C8.12842 9.57578 8.19527 9.15445 8.32334 8.75H11.6767C11.8047 9.15445 11.8716 9.57578 11.875 10ZM8.6575 12.0833H11.3425C10.9889 12.7816 10.5367 13.4254 10 13.995C9.46307 13.4255 9.01094 12.7817 8.6575 12.0833ZM8.6575 7.91667C9.01115 7.21845 9.46327 6.57465 10 6.005C10.5369 6.57449 10.9891 7.21832 11.3425 7.91667H8.6575ZM8.91667 5.98167C8.43653 6.56908 8.04025 7.22029 7.73917 7.91667H6.39709C6.94952 6.96518 7.85486 6.2699 8.91667 5.98167ZM6.02542 8.75H7.45834C7.35032 9.15798 7.29432 9.57797 7.29167 10C7.29432 10.422 7.35032 10.842 7.45834 11.25H6.02542C5.76931 10.4363 5.76931 9.56366 6.02542 8.75ZM6.39709 12.0833H7.73917C8.04025 12.7797 8.43653 13.4309 8.91667 14.0183C7.85486 13.7301 6.94952 13.0348 6.39709 12.0833ZM11.0854 14.0183C11.5648 13.4308 11.9604 12.7796 12.2608 12.0833H13.6029C13.051 13.0344 12.1465 13.7296 11.0854 14.0183ZM13.9746 11.25H12.5417C12.6497 10.842 12.7057 10.422 12.7083 10C12.7057 9.57797 12.6497 9.15798 12.5417 8.75H13.9738C14.2299 9.56366 14.2307 10.4363 13.9746 11.25Z" fill="#9537FD"/>
</g>
</g>
<defs>
<clipPath id="clip0_5_145">
<rect width="20" height="20" fill="white"/>
</clipPath>
</defs>
</svg>
