<svg width="10" height="10" viewBox="0 0 10 10" fill="none" xmlns="http://www.w3.org/2000/svg">
<g clip-path="url(#clip0_73_371)">
<path d="M7.70833 0.833333H7.5V0.625C7.5 0.279583 7.22 0 6.875 0C6.53 0 6.25 0.279583 6.25 0.625V0.833333H3.75V0.625C3.75 0.279583 3.47 0 3.125 0C2.78 0 2.5 0.279583 2.5 0.625V0.833333H2.29167C1.02833 0.833333 0 1.86125 0 3.125V7.70833C0 8.97208 1.02833 10 2.29167 10H7.70833C8.97167 10 10 8.97208 10 7.70833V3.125C10 1.86125 8.97167 0.833333 7.70833 0.833333ZM7.70833 8.75H2.29167C1.71708 8.75 1.25 8.2825 1.25 7.70833V3.75H8.75V7.70833C8.75 8.2825 8.28292 8.75 7.70833 8.75ZM4.16667 5.20833V6.04167C4.16667 6.38667 3.88667 6.66667 3.54167 6.66667H2.70833C2.36333 6.66667 2.08333 6.38667 2.08333 6.04167V5.20833C2.08333 4.86333 2.36333 4.58333 2.70833 4.58333H3.54167C3.88667 4.58333 4.16667 4.86333 4.16667 5.20833Z" fill="#5B46F4"/>
</g>
<defs>
<clipPath id="clip0_73_371">
<rect width="10" height="10" fill="white"/>
</clipPath>
</defs>
</svg>
