<svg width="20" height="20" viewBox="0 0 20 20" fill="none" xmlns="http://www.w3.org/2000/svg">
<g clip-path="url(#clip0_5_124)">
<path d="M10 20C15.5228 20 20 15.5228 20 10C20 4.47715 15.5228 0 10 0C4.47715 0 0 4.47715 0 10C0 15.5228 4.47715 20 10 20Z" fill="#FFEBDF"/>
<mask id="mask0_5_124" style="mask-type:luminance" maskUnits="userSpaceOnUse" x="5" y="5" width="10" height="10">
<path d="M15 5H5V15H15V5Z" fill="white"/>
</mask>
<g mask="url(#mask0_5_124)">
<path d="M10.4165 5.4166C10.4165 5.30609 10.4604 5.20011 10.5385 5.12197C10.6167 5.04383 10.7227 4.99993 10.8332 4.99993C11.9379 5.00115 12.997 5.44052 13.7781 6.22166C14.5592 7.0028 14.9986 8.0619 14.9998 9.1666C14.9998 9.27711 14.9559 9.38309 14.8778 9.46123C14.7997 9.53937 14.6937 9.58327 14.5832 9.58327C14.4727 9.58327 14.3667 9.53937 14.2885 9.46123C14.2104 9.38309 14.1665 9.27711 14.1665 9.1666C14.1655 8.28285 13.814 7.43558 13.1891 6.81067C12.5642 6.18577 11.7169 5.83426 10.8332 5.83327C10.7227 5.83327 10.6167 5.78937 10.5385 5.71123C10.4604 5.63309 10.4165 5.52711 10.4165 5.4166ZM10.8332 7.49993C11.2752 7.49993 11.6991 7.67553 12.0117 7.98809C12.3242 8.30065 12.4998 8.72457 12.4998 9.1666C12.4998 9.27711 12.5437 9.38309 12.6219 9.46123C12.7 9.53937 12.806 9.58327 12.9165 9.58327C13.027 9.58327 13.133 9.53937 13.2111 9.46123C13.2893 9.38309 13.3332 9.27711 13.3332 9.1666C13.3325 8.50376 13.0689 7.86826 12.6002 7.39956C12.1315 6.93087 11.496 6.66726 10.8332 6.6666C10.7227 6.6666 10.6167 6.7105 10.5385 6.78864C10.4604 6.86678 10.4165 6.97276 10.4165 7.08327C10.4165 7.19377 10.4604 7.29975 10.5385 7.37789C10.6167 7.45603 10.7227 7.49993 10.8332 7.49993ZM14.6219 11.9745C14.8634 12.2166 14.999 12.5446 14.999 12.8866C14.999 13.2286 14.8634 13.5566 14.6219 13.7987L14.2427 14.2358C10.8302 17.5029 2.52608 9.20077 5.74275 5.77743L6.22191 5.36077C6.46432 5.12605 6.78939 4.9962 7.12679 4.99932C7.4642 5.00244 7.78681 5.13827 8.02483 5.37743C8.03775 5.39035 8.80983 6.39327 8.80983 6.39327C9.03893 6.63394 9.16646 6.95365 9.16592 7.28593C9.16537 7.61822 9.0368 7.93751 8.80691 8.17743L8.32441 8.7841C8.59143 9.4329 8.98402 10.0225 9.47963 10.5191C9.97523 11.0157 10.5641 11.4095 11.2123 11.6778L11.8227 11.1924C12.0627 10.9627 12.3819 10.8343 12.7141 10.8338C13.0463 10.8334 13.3659 10.9609 13.6065 11.1899C13.6065 11.1899 14.609 11.9616 14.6219 11.9745ZM14.0486 12.5803C14.0486 12.5803 13.0515 11.8133 13.0386 11.8003C12.9527 11.7152 12.8368 11.6675 12.7159 11.6675C12.595 11.6675 12.479 11.7152 12.3932 11.8003C12.3819 11.812 11.5415 12.4816 11.5415 12.4816C11.4849 12.5267 11.4175 12.5562 11.3459 12.5673C11.2744 12.5784 11.2012 12.5707 11.1336 12.5449C10.2938 12.2323 9.53097 11.7427 8.89685 11.1095C8.26272 10.4764 7.77208 9.71428 7.45816 8.87493C7.43033 8.80637 7.42126 8.73164 7.43187 8.65841C7.44249 8.58518 7.47242 8.5161 7.51858 8.45827C7.51858 8.45827 8.18816 7.61743 8.19941 7.6066C8.28453 7.52076 8.33228 7.40477 8.33228 7.28389C8.33228 7.16301 8.28453 7.04702 8.19941 6.96118C8.1865 6.94868 7.41941 5.95077 7.41941 5.95077C7.33229 5.87264 7.21858 5.83081 7.1016 5.83383C6.98462 5.83685 6.87322 5.8845 6.79025 5.96702L6.31108 6.38368C3.96025 9.21035 11.1565 16.0074 13.6336 13.6666L14.0132 13.2291C14.1021 13.1467 14.1555 13.033 14.1622 12.9119C14.1688 12.7908 14.128 12.6719 14.0486 12.5803Z" fill="#FF5C00"/>
</g>
</g>
<defs>
<clipPath id="clip0_5_124">
<rect width="20" height="20" fill="white"/>
</clipPath>
</defs>
</svg>
