<svg width="20" height="20" viewBox="0 0 20 20" fill="none" xmlns="http://www.w3.org/2000/svg">
<g clip-path="url(#clip0_192_993)">
<path d="M1.15384 18.4155C0.941251 18.4155 0.769226 18.5877 0.769226 18.8001C0.769226 19.0125 0.941251 19.1847 1.15384 19.1847C1.19316 19.1847 18.8858 19.1846 18.8461 19.1847C19.0587 19.1847 19.2308 19.0125 19.2308 18.8001C19.2308 18.6002 19.0766 18.4412 18.8814 18.4226C18.8989 18.3487 18.9104 18.2726 18.9104 18.1935C18.9104 16.5937 18.9104 15.6969 18.9104 13.7231C18.9104 12.9061 18.4789 12.1897 17.8332 11.7844H18.688C18.9006 11.7844 19.0726 11.6122 19.0726 11.3998V10.6603C19.0726 10.4479 18.9006 10.2756 18.688 10.2756C18.4754 10.2756 18.3034 10.4479 18.3034 10.6603V11.0152H17.2201L16.5242 9.46078C16.0295 8.35613 14.8963 7.64249 13.6373 7.64249H9.3919C8.13326 7.64249 7.00007 8.35613 6.5054 9.46078L5.8092 11.0152H4.72581V10.6603C4.72581 10.4479 4.55378 10.2756 4.34119 10.2756C4.1286 10.2756 3.95658 10.4479 3.95658 10.6603V11.3998C3.95658 11.6122 4.1286 11.7844 4.34119 11.7844H5.19625C4.55045 12.1897 4.11884 12.9061 4.11884 13.7231C4.11876 14.1648 4.11911 12.0965 4.11808 18.1935C4.11808 18.27 4.12853 18.3438 4.14489 18.4155H2.112V7.43591H6.28756C6.70109 7.43591 7.03726 7.09768 7.03726 6.68208V1.72434C7.03726 1.30873 6.70109 0.970505 6.28756 0.970505H1.72588C1.51329 0.970505 1.34127 1.14272 1.34127 1.35512C1.34142 3.06805 1.34262 16.7026 1.34277 18.4155H1.15384ZM6.28756 6.66668H2.112C2.11197 5.57763 2.11208 9.34413 2.11186 1.73974H6.26802L6.28756 6.66668ZM7.62582 16.8676H15.4026V18.1935C15.4026 18.27 15.4131 18.3438 15.4294 18.4155H7.59904C7.6154 18.3438 7.62582 18.27 7.62582 18.1935V16.8676ZM18.1411 16.8676V18.1935C18.1411 18.3054 18.0598 18.3944 17.9541 18.4155H16.358C16.2515 18.3945 16.1719 18.3069 16.1719 18.1935V16.8676H18.1411ZM13.7935 12.2029L13.5637 13.1796C13.4446 13.5501 13.1378 13.7627 12.722 13.7627H10.222C9.80619 13.7627 9.49932 13.5503 9.38889 13.2089L9.15079 12.2029H13.7935ZM7.20778 9.77516C7.57286 8.95973 8.45064 8.41172 9.3919 8.41172H13.6373C14.5789 8.41172 15.4567 8.95973 15.8218 9.77516L16.5629 11.4297H6.46672L7.20778 9.77516ZM6.4085 12.2029H8.36057L8.64821 13.4147C8.86906 14.104 9.47228 14.532 10.222 14.532H12.722C13.4713 14.532 14.0745 14.104 14.3044 13.3858L14.5837 12.2029H16.6211C17.4594 12.2029 18.1411 12.8848 18.1411 13.7231V16.0975C18.1025 16.0975 4.44618 16.0989 4.88807 16.0975V13.7231C4.88807 12.8848 5.57016 12.2029 6.4085 12.2029ZM4.88732 18.1935V16.8676H6.85659V18.1935C6.85659 18.3069 6.77696 18.3945 6.67072 18.4155H5.07467C4.96891 18.3944 4.88732 18.3054 4.88732 18.1935Z" fill="black"/>
<path d="M6.8104 15.2781C7.44667 15.2781 7.96425 14.7605 7.96425 14.1242C7.96425 13.488 7.44667 12.9704 6.8104 12.9704C6.17413 12.9704 5.65656 13.488 5.65656 14.1242C5.65656 14.7605 6.17413 15.2781 6.8104 15.2781ZM6.8104 13.7396C7.02262 13.7396 7.19502 13.9122 7.19502 14.1242C7.19502 14.3363 7.02262 14.5088 6.8104 14.5088C6.59819 14.5088 6.42579 14.3363 6.42579 14.1242C6.42579 13.9122 6.59819 13.7396 6.8104 13.7396Z" fill="#5B46F4"/>
<path d="M16.2181 15.2781C16.8543 15.2781 17.3719 14.7605 17.3719 14.1242C17.3719 13.488 16.8543 12.9704 16.2181 12.9704C15.5818 12.9704 15.0642 13.488 15.0642 14.1242C15.0642 14.7605 15.5818 15.2781 16.2181 15.2781ZM16.2181 13.7396C16.4303 13.7396 16.6027 13.9122 16.6027 14.1242C16.6027 14.3363 16.4303 14.5088 16.2181 14.5088C16.0058 14.5088 15.8334 14.3363 15.8334 14.1242C15.8334 13.9122 16.0058 13.7396 16.2181 13.7396Z" fill="#5B46F4"/>
<path d="M2.99804 5.52166C2.99804 5.73406 3.17007 5.90627 3.38266 5.90627C3.59525 5.90627 3.76728 5.73406 3.76728 5.52166V4.7498H4.25405C4.87567 4.7498 5.38161 4.24386 5.38161 3.62206C5.38161 3.00344 4.87567 2.50014 4.25405 2.50014H3.38153C3.16894 2.50014 2.99692 2.67235 2.99692 2.88475V4.36518C2.99692 4.36716 2.99802 4.3688 2.99804 4.37077V5.52166ZM4.61238 3.62206C4.61238 3.81981 4.45162 3.98057 4.25405 3.98057H3.76728V3.26937H4.25405C4.45162 3.26937 4.61238 3.4275 4.61238 3.62206Z" fill="#5B46F4"/>
<path d="M10.2926 6.10759C10.1438 6.25896 10.1457 6.50254 10.2971 6.65146C10.4471 6.79957 10.6905 6.79969 10.841 6.64733C12.4072 5.05584 12.3878 2.49227 10.7963 0.925991C10.6449 0.776502 10.4015 0.778943 10.2524 0.930122C10.1037 1.08149 10.1055 1.32507 10.2569 1.47399C11.5451 2.74273 11.5611 4.8193 10.2926 6.10759Z" fill="#5B46F4"/>
<path d="M9.21949 1.79062C9.07075 1.94199 9.07263 2.18556 9.224 2.33468C10.033 3.13114 10.0432 4.43785 9.24653 5.24709C9.0978 5.39845 9.09967 5.64203 9.25104 5.79096C9.40103 5.93906 9.64442 5.93918 9.79491 5.78683C10.889 4.67505 10.8751 2.88061 9.76336 1.7863C9.61199 1.63719 9.3686 1.63925 9.21949 1.79062Z" fill="#5B46F4"/>
<path d="M8.19673 2.65093C8.04798 2.8023 8.04987 3.04588 8.20123 3.1948C8.53214 3.52082 8.53627 4.05568 8.21025 4.38677C8.06151 4.53814 8.06339 4.78172 8.21476 4.93064C8.36475 5.07875 8.60814 5.07887 8.75863 4.92651C9.38212 4.29306 9.37424 3.2703 8.7406 2.6468C8.58923 2.49731 8.34584 2.49975 8.19673 2.65093Z" fill="#5B46F4"/>
</g>
<defs>
<clipPath id="clip0_192_993">
<rect width="20" height="20" fill="white"/>
</clipPath>
</defs>
</svg>
