<svg width="30" height="30" viewBox="0 0 30 30" fill="none" xmlns="http://www.w3.org/2000/svg">
<circle cx="15" cy="15" r="14.5" fill="white" stroke="#85829B"/>
<g clip-path="url(#clip0_179_573)">
<path d="M8.68348 22C8.54826 22 8.41607 21.9599 8.30363 21.8848C8.19119 21.8097 8.10355 21.7029 8.0518 21.578C8.00005 21.4531 7.98651 21.3156 8.0129 21.183C8.03929 21.0504 8.10441 20.9285 8.20004 20.8329L20.8329 8.20012C20.9611 8.07191 21.135 7.99988 21.3163 7.99988C21.4976 7.99988 21.6715 8.07191 21.7997 8.20012C21.9279 8.32834 22 8.50224 22 8.68356C22 8.86489 21.9279 9.03878 21.7997 9.167L9.16691 21.7998C9.10349 21.8634 9.02813 21.9138 8.94516 21.9481C8.8622 21.9825 8.77327 22.0001 8.68348 22Z" fill="#85829B"/>
<path d="M21.3163 22C21.2265 22.0001 21.1375 21.9825 21.0546 21.9481C20.9716 21.9138 20.8962 21.8634 20.8328 21.7998L8.2 9.167C8.07179 9.03878 7.99976 8.86489 7.99976 8.68356C7.99976 8.50224 8.07179 8.32834 8.2 8.20012C8.32822 8.07191 8.50212 7.99988 8.68344 7.99988C8.86476 7.99988 9.03866 8.07191 9.16688 8.20012L21.7997 20.8329C21.8953 20.9285 21.9604 21.0504 21.9868 21.183C22.0132 21.3156 21.9997 21.4531 21.9479 21.578C21.8962 21.7029 21.8085 21.8097 21.6961 21.8848C21.5837 21.9599 21.4515 22 21.3163 22Z" fill="#85829B"/>
</g>
<defs>
<clipPath id="clip0_179_573">
<rect width="14" height="14" fill="white" transform="translate(8 8)"/>
</clipPath>
</defs>
</svg>
