<svg width="14" height="14" viewBox="0 0 14 14" fill="none" xmlns="http://www.w3.org/2000/svg">
<g clip-path="url(#clip0_110_328)">
<path d="M12.25 0.583333H1.75C1.28587 0.583333 0.840752 0.767707 0.512563 1.0959C0.184374 1.42408 0 1.8692 0 2.33333L0 13.4167H14V2.33333C14 1.8692 13.8156 1.42408 13.4874 1.0959C13.1592 0.767707 12.7141 0.583333 12.25 0.583333ZM1.75 1.75H12.25C12.4047 1.75 12.5531 1.81146 12.6625 1.92085C12.7719 2.03025 12.8333 2.17862 12.8333 2.33333V2.72242L8.23783 7.3185C7.90908 7.64593 7.46399 7.82977 7 7.82977C6.53601 7.82977 6.09092 7.64593 5.76217 7.3185L1.16667 2.72242V2.33333C1.16667 2.17862 1.22812 2.03025 1.33752 1.92085C1.44692 1.81146 1.59529 1.75 1.75 1.75ZM1.16667 12.25V4.375L4.93733 8.14333C5.48487 8.68948 6.22665 8.99619 7 8.99619C7.77335 8.99619 8.51513 8.68948 9.06267 8.14333L12.8333 4.375V12.25H1.16667Z" fill="#5B46F4"/>
</g>
<defs>
<clipPath id="clip0_110_328">
<rect width="14" height="14" fill="white"/>
</clipPath>
</defs>
</svg>
