<svg width="14" height="14" viewBox="0 0 14 14" fill="none" xmlns="http://www.w3.org/2000/svg">
<g clip-path="url(#clip0_71_169)">
<path d="M13.8956 6.52225C13.332 5.3 12.5065 4.21664 11.4777 3.34892L13.2463 1.58025L12.4209 0.75425L10.5 2.67342C9.43678 2.05842 8.2282 1.73956 6.99999 1.75C2.62499 1.75 0.616569 5.40225 0.104403 6.52225C0.0356499 6.67234 6.10352e-05 6.83549 6.10352e-05 7.00058C6.10352e-05 7.16567 0.0356499 7.32882 0.104403 7.47892C0.667982 8.70117 1.49345 9.78453 2.52232 10.6522L0.754236 12.4209L1.57907 13.2458L3.49999 11.3266C4.56319 11.9416 5.77177 12.2604 6.99999 12.25C11.375 12.25 13.3834 8.59775 13.8956 7.47775C13.9642 7.32783 13.9997 7.16488 13.9997 7C13.9997 6.83512 13.9642 6.67217 13.8956 6.52225ZM1.16665 7.00642C1.60415 6.04683 3.3209 2.91667 6.99999 2.91667C7.91558 2.91131 8.81919 3.12492 9.63548 3.53967L8.6059 4.56925C8.04586 4.19743 7.37443 4.03083 6.70554 4.09771C6.03664 4.16459 5.41149 4.46083 4.93615 4.93617C4.46082 5.4115 4.16457 6.03666 4.0977 6.70555C4.03082 7.37444 4.19742 8.04588 4.56924 8.60592L3.35649 9.81867C2.42337 9.05881 1.67466 8.09729 1.16665 7.00642ZM8.74999 7C8.74999 7.46413 8.56561 7.90925 8.23742 8.23744C7.90923 8.56562 7.46411 8.75 6.99999 8.75C6.74012 8.74899 6.48385 8.68916 6.2504 8.575L8.57499 6.25042C8.68915 6.48386 8.74898 6.74013 8.74999 7ZM5.24999 7C5.24999 6.53587 5.43436 6.09075 5.76255 5.76256C6.09074 5.43437 6.53586 5.25 6.99999 5.25C7.25985 5.25101 7.51612 5.31083 7.74957 5.425L5.42499 7.74958C5.31082 7.51613 5.25099 7.25987 5.24999 7ZM6.99999 11.0833C6.08439 11.0887 5.18078 10.8751 4.36449 10.4603L5.39407 9.43075C5.95411 9.80256 6.62554 9.96917 7.29443 9.90229C7.96333 9.83541 8.58848 9.53917 9.06382 9.06383C9.53916 8.58849 9.8354 7.96334 9.90227 7.29445C9.96915 6.62555 9.80255 5.95412 9.43073 5.39408L10.6429 4.18192C11.5779 4.94247 12.327 5.90628 12.8333 7C12.3877 7.96658 10.6703 11.0833 6.99999 11.0833Z" fill="#86839B"/>
</g>
<defs>
<clipPath id="clip0_71_169">
<rect width="14" height="14" fill="white"/>
</clipPath>
</defs>
</svg>
