<svg width="16" height="16" viewBox="0 0 16 16" fill="none" xmlns="http://www.w3.org/2000/svg">
<g clip-path="url(#clip0_5_98)">
<path d="M8 16C12.4183 16 16 12.4183 16 8C16 3.58172 12.4183 0 8 0C3.58172 0 0 3.58172 0 8C0 12.4183 3.58172 16 8 16Z" fill="#DDE7FF"/>
<path d="M7.04369 8.51666C7.01229 8.51666 6.35359 8.51686 6.04979 8.51656C5.89339 8.51646 5.83759 8.46026 5.83759 8.30286C5.83739 7.89856 5.83729 7.49426 5.83759 7.08996C5.83769 6.93456 5.89669 6.87526 6.05109 6.87516C6.35489 6.87496 7.00999 6.87506 7.04369 6.87506C7.04369 6.84736 7.04359 6.26366 7.04369 5.99486C7.04389 5.59746 7.11479 5.21706 7.31669 4.86876C7.52339 4.51226 7.82419 4.26806 8.20969 4.12686C8.45659 4.03636 8.71289 4.00026 8.97489 4.00006C9.30269 3.99986 9.63049 4.00016 9.95839 4.00076C10.0993 4.00096 10.1618 4.06326 10.1621 4.20516C10.1627 4.58546 10.1627 4.96576 10.1621 5.34596C10.1619 5.48936 10.102 5.54696 9.95789 5.54856C9.68919 5.55146 9.42029 5.54966 9.15189 5.56046C8.88079 5.56046 8.73819 5.69286 8.73819 5.97346C8.73169 6.27026 8.73549 6.56736 8.73549 6.87496C8.76089 6.87496 9.53239 6.87486 9.89299 6.87496C10.0568 6.87496 10.1128 6.93126 10.1128 7.09596C10.1128 7.49806 10.1127 7.90026 10.1124 8.30236C10.1123 8.46466 10.0597 8.51646 9.89489 8.51656C9.53429 8.51676 8.76579 8.51666 8.73219 8.51666V11.7712C8.73219 11.9447 8.67759 12 8.50639 12C8.08899 12 7.67149 12.0001 7.25409 12C7.10279 12 7.04379 11.9412 7.04379 11.7899C7.04369 10.73 7.04369 8.55386 7.04369 8.51666Z" fill="#3D6AD6"/>
</g>
<defs>
<clipPath id="clip0_5_98">
<rect width="16" height="16" fill="white"/>
</clipPath>
</defs>
</svg>
