<svg width="10" height="16" viewBox="0 0 10 16" fill="none" xmlns="http://www.w3.org/2000/svg">
<path d="M3.08741 9.0332C3.02461 9.0332 1.70721 9.0336 1.09961 9.033C0.786814 9.0328 0.675214 8.9204 0.675214 8.6056C0.674814 7.797 0.674614 6.9884 0.675214 6.1798C0.675414 5.869 0.793414 5.7504 1.10221 5.7502C1.70981 5.7498 3.02001 5.75 3.08741 5.75C3.08741 5.6946 3.08721 4.5272 3.08741 3.9896C3.08781 3.1948 3.22961 2.434 3.63341 1.7374C4.04681 1.0244 4.64841 0.536001 5.41941 0.253601C5.91321 0.0726013 6.42581 0.000401339 6.94981 1.33934e-06C7.60541 -0.000398661 8.26101 0.000201333 8.91681 0.00140133C9.19861 0.00180133 9.32361 0.126401 9.32421 0.410201C9.32541 1.1708 9.32541 1.9314 9.32421 2.6918C9.32381 2.9786 9.20401 3.0938 8.91581 3.097C8.37841 3.1028 7.84061 3.0992 7.30381 3.1208C6.76161 3.1208 6.47641 3.3856 6.47641 3.9468C6.46341 4.5404 6.47101 5.1346 6.47101 5.7498C6.52181 5.7498 8.06481 5.7496 8.78601 5.7498C9.11361 5.7498 9.22561 5.8624 9.22561 6.1918C9.22561 6.996 9.22541 7.8004 9.22481 8.6046C9.22461 8.9292 9.11941 9.0328 8.78981 9.033C8.06861 9.0334 6.53161 9.0332 6.46441 9.0332V15.5422C6.46441 15.8892 6.35521 15.9998 6.01281 15.9998C5.17801 15.9998 4.34301 16 3.50821 15.9998C3.20561 15.9998 3.08761 15.8822 3.08761 15.5796C3.08741 13.4598 3.08741 9.1076 3.08741 9.0332Z" fill="#3D6AD6"/>
</svg>
