<svg width="139" height="137" viewBox="0 0 139 137" fill="none" xmlns="http://www.w3.org/2000/svg">
<path opacity="0.5" d="M51.5019 38.5903C44.699 50.2913 22.7451 53.8529 15.1017 59.8553C8.10563 65.3496 4.37789 78.0614 4.75902 88.1859C5.13493 98.3155 12.8045 108.388 22.8704 109.236C27.2507 109.603 31.6363 108.304 36.0219 108.602C50.0609 109.566 57.8818 125.358 70.2241 132.135C84.4511 139.945 102.578 134.419 115.74 124.923C124.109 118.884 131.643 110.865 134.311 100.877C136.973 90.8833 133.517 78.7842 124.443 73.8713C116.267 69.4507 103.81 70.0949 100.625 61.3428C98.3961 55.2199 102.74 48.8195 103.716 42.3772C105.246 32.2842 97.5921 22.233 87.8864 19.1481C78.1807 16.0631 69.2947 15.5288 62.1473 22.7987C58.8111 26.1927 53.8983 34.4735 51.5071 38.5903H51.5019Z" fill="#FF9B8D"/>
<path opacity="0.5" d="M40.4127 117.684C50.275 117.768 59.8815 120.895 68.0105 126.52C89.2648 141.228 112.289 134.063 119.353 127.814C127.555 120.549 131.758 109.435 132.082 98.4517C132.405 87.4683 129.158 76.6054 124.37 66.7009C120.627 58.9596 115.787 51.5169 108.932 46.3264C102.234 41.2563 94.0472 38.6375 85.9965 36.27C75.6382 33.2269 65.0189 30.4195 54.2429 30.7024C45.4561 30.9276 35.5364 34.264 32.4143 42.4767C29.7568 49.4794 32.9729 57.7445 30.1954 64.7001C26.3058 74.4422 13.17 76.6316 6.67514 84.8547C-0.900406 94.4449 1.45423 107.534 8.57033 111.892C15.9893 116.438 29.4801 117.59 40.4127 117.679V117.684Z" stroke="#FE3D85" stroke-width="3.14" stroke-miterlimit="10"/>
<path d="M119.852 57.1934C119.852 55.0767 118.189 53.4141 116.072 53.4141H107.758L101.872 45.0999L94.1521 53.4141H54.8479L48.1573 45.0999L41.2419 53.4141H32.9277C30.8111 53.4141 29.1484 55.0767 29.1484 57.1934V72.3105L36.707 76.0898L29.1484 79.8691V87.4277L36.707 91.207L29.1484 94.9863V102.545L36.707 106.324L29.1484 110.104V125.221C29.1484 127.337 30.8111 129 32.9277 129H116.072C118.189 129 119.852 127.337 119.852 125.221V110.104L112.369 106.324L119.852 102.545V94.9863L112.369 91.207L119.852 87.4277V79.8691L112.369 76.0898L119.852 72.3105V57.1934Z" fill="url(#paint0_linear_3_32)"/>
<path d="M74.5 68.5312C68.248 68.5312 63.1621 73.6172 63.1621 79.8691C63.1621 81.9581 64.8525 83.6484 66.9414 83.6484C69.0303 83.6484 70.7207 81.9581 70.7207 79.8691C70.7207 77.784 72.4184 76.0898 74.5 76.0898C76.5816 76.0898 78.2793 77.784 78.2793 79.8691C78.2793 81.2163 77.5559 82.4711 76.3823 83.1465C72.8908 85.169 70.7207 88.9299 70.7207 92.9639V94.9863C70.7207 97.0753 72.4111 98.7656 74.5 98.7656C76.5889 98.7656 78.2793 97.0753 78.2793 94.9863V92.9639C78.2793 91.6205 79.0027 90.362 80.1689 89.6865C83.6678 87.6676 85.8379 83.9032 85.8379 79.8691C85.8379 73.6172 80.752 68.5312 74.5 68.5312ZM74.5 106.324C72.4128 106.324 70.7207 108.016 70.7207 110.104C70.7207 112.191 72.4128 113.883 74.5 113.883C76.5872 113.883 78.2793 112.191 78.2793 110.104C78.2793 108.016 76.5872 106.324 74.5 106.324ZM40.4863 102.545H29.1484V110.104H40.4863C42.603 110.104 44.2656 108.44 44.2656 106.324C44.2656 104.208 42.603 102.545 40.4863 102.545ZM40.4863 87.4277H29.1484V94.9863H40.4863C42.603 94.9863 44.2656 93.3232 44.2656 91.207C44.2656 89.0904 42.603 87.4277 40.4863 87.4277ZM40.4863 72.3105H29.1484V79.8691H40.4863C42.603 79.8691 44.2656 78.206 44.2656 76.0898C44.2656 73.9732 42.603 72.3105 40.4863 72.3105ZM104.81 91.207C104.81 93.3232 106.548 94.9863 108.589 94.9863H119.852V87.4277H108.589C106.548 87.4277 104.81 89.0904 104.81 91.207ZM108.589 72.3105C106.548 72.3105 104.81 73.9732 104.81 76.0898C104.81 78.206 106.548 79.8691 108.589 79.8691H119.852V72.3105H108.589ZM104.81 106.324C104.81 108.44 106.548 110.104 108.589 110.104H119.852V102.545H108.589C106.548 102.545 104.81 104.208 104.81 106.324ZM107.758 53.4141V33.2581C107.758 14.6622 92.6762 0 74.5 0C56.1326 0 41.2419 14.8907 41.2419 33.2581V53.4141H54.8477V33.2581C54.8479 22.4493 63.6912 13.6055 74.5 13.6055C85.3088 13.6055 94.1521 22.4493 94.1521 33.2581V53.4141H107.758Z" fill="url(#paint1_linear_3_32)"/>
<defs>
<linearGradient id="paint0_linear_3_32" x1="74.5" y1="129" x2="74.5" y2="45.0999" gradientUnits="userSpaceOnUse">
<stop stop-color="#FD3A84"/>
<stop offset="1" stop-color="#FFA68D"/>
</linearGradient>
<linearGradient id="paint1_linear_3_32" x1="74.5" y1="113.883" x2="74.5" y2="0" gradientUnits="userSpaceOnUse">
<stop stop-color="#FFC2CC"/>
<stop offset="1" stop-color="#FFF2F4"/>
</linearGradient>
</defs>
</svg>
