<svg width="26" height="20" viewBox="0 0 26 20" fill="none" xmlns="http://www.w3.org/2000/svg">
<path d="M0 1.33333C0 0.7375 0.4875 0.25 1.08333 0.25H19.5C20.0958 0.25 20.5833 0.7375 20.5833 1.33333C20.5833 1.92917 20.0958 2.41667 19.5 2.41667H1.08333C0.4875 2.41667 0 1.92917 0 1.33333ZM19.5 17.5833H1.08333C0.4875 17.5833 0 18.0708 0 18.6667C0 19.2625 0.4875 19.75 1.08333 19.75H19.5C20.0958 19.75 20.5833 19.2625 20.5833 18.6667C20.5833 18.0708 20.0958 17.5833 19.5 17.5833ZM24.9167 8.91667H6.5C5.90417 8.91667 5.41667 9.40417 5.41667 10C5.41667 10.5958 5.90417 11.0833 6.5 11.0833H24.9167C25.5125 11.0833 26 10.5958 26 10C26 9.40417 25.5125 8.91667 24.9167 8.91667Z" fill="black"/>
</svg>
