<svg width="20" height="20" viewBox="0 0 20 20" fill="none" xmlns="http://www.w3.org/2000/svg">
<g clip-path="url(#clip0_192_1007)">
<path d="M19.1665 19.1666H18.7498V8.33329C19.0977 8.28754 19.4169 8.11611 19.6471 7.85132C19.8774 7.58654 20.0028 7.24667 19.9998 6.89579C19.9998 5.90829 19.2123 5.58746 18.3331 5.01246V1.66663C18.3331 1.55612 18.2892 1.45014 18.2111 1.372C18.133 1.29386 18.027 1.24996 17.9165 1.24996H15.4165C15.306 1.24996 15.2 1.29386 15.1218 1.372C15.0437 1.45014 14.9998 1.55612 14.9998 1.66663V2.85829L11.1373 0.337459C10.7989 0.116924 10.4037 -0.000488281 9.99981 -0.000488281C9.5959 -0.000488281 9.2007 0.116924 8.86231 0.337459L0.66231 5.68329C0.414548 5.84649 0.222107 6.081 0.110392 6.35585C-0.00132305 6.63069 -0.027058 6.93296 0.0365845 7.22273C0.100227 7.51251 0.250254 7.77617 0.466859 7.97891C0.683464 8.18165 0.956462 8.31393 1.24981 8.35829V19.1666H0.833143C0.722636 19.1666 0.616655 19.2105 0.538515 19.2887C0.460375 19.3668 0.416476 19.4728 0.416476 19.5833C0.416476 19.6938 0.460375 19.7998 0.538515 19.8779C0.616655 19.9561 0.722636 20 0.833143 20H19.1665C19.277 20 19.383 19.9561 19.4611 19.8779C19.5392 19.7998 19.5831 19.6938 19.5831 19.5833C19.5831 19.4728 19.5392 19.3668 19.4611 19.2887C19.383 19.2105 19.277 19.1666 19.1665 19.1666ZM15.8331 2.08329H17.4998V4.48746L15.8331 3.39996V2.08329ZM0.833143 6.91246C0.833143 6.42496 0.483143 6.79996 9.31648 1.03746C9.51969 0.904792 9.75713 0.834147 9.99981 0.834147C10.2425 0.834147 10.4799 0.904792 10.6831 1.03746L18.879 6.38329C19.0188 6.47446 19.1166 6.61743 19.151 6.78074C19.1854 6.94405 19.1535 7.11433 19.0623 7.25413C18.9711 7.39392 18.8282 7.49177 18.6649 7.52615C18.5016 7.56053 18.3313 7.52863 18.1915 7.43746L10.229 2.24579C9.89564 2.02913 10.3873 1.82913 1.80814 7.43746C1.71332 7.49985 1.60339 7.53543 1.48999 7.54042C1.3766 7.54542 1.26396 7.51964 1.16402 7.46583C1.06408 7.41201 0.980563 7.33217 0.922312 7.23475C0.864062 7.13733 0.83325 7.02597 0.833143 6.91246ZM2.08314 19.1666C2.08314 7.01246 2.00398 8.30413 2.26231 8.13746L9.99981 3.09163L17.7373 8.13746C17.9915 8.30413 17.9165 6.99996 17.9165 19.1666H2.08314Z" fill="black"/>
<path d="M11.8498 12.0832C12.6332 11.2498 12.4998 10.4165 12.4998 9.1665C12.4998 8.50346 12.2365 7.86758 11.7676 7.39874C11.2988 6.9299 10.6629 6.6665 9.99984 6.6665C9.3368 6.6665 8.70092 6.9299 8.23208 7.39874C7.76323 7.86758 7.49984 8.50346 7.49984 9.1665C7.49984 10.3957 7.37068 11.2498 8.14984 12.0832C7.4085 12.1299 6.71291 12.4576 6.20497 12.9996C5.69704 13.5416 5.41504 14.257 5.41651 14.9998V17.0832C5.41651 17.1937 5.46041 17.2997 5.53855 17.3778C5.61669 17.4559 5.72267 17.4998 5.83318 17.4998H14.1665C14.277 17.4998 14.383 17.4559 14.4611 17.3778C14.5393 17.2997 14.5832 17.1937 14.5832 17.0832V14.9998C14.5846 14.257 14.3026 13.5416 13.7947 12.9996C13.2868 12.4576 12.5912 12.1299 11.8498 12.0832ZM8.33318 10.4165V9.99984C8.84153 9.97581 9.31958 9.75103 9.66234 9.37484C10.2426 9.79971 10.9476 10.0196 11.6665 9.99984V10.4165C11.6665 10.8585 11.4909 11.2825 11.1784 11.595C10.8658 11.9076 10.4419 12.0832 9.99984 12.0832C9.55782 12.0832 9.13389 11.9076 8.82133 11.595C8.50877 11.2825 8.33318 10.8585 8.33318 10.4165ZM9.99984 7.49984C10.4419 7.49984 10.8658 7.67543 11.1784 7.98799C11.4909 8.30055 11.6665 8.72448 11.6665 9.1665C11.3356 9.17699 11.0061 9.11913 10.6985 8.99654C10.391 8.87395 10.112 8.68926 9.87901 8.454C9.83232 8.40745 9.77525 8.37265 9.71249 8.35245C9.64973 8.33224 9.58307 8.32722 9.51799 8.3378C9.45291 8.34838 9.39127 8.37424 9.33814 8.41328C9.285 8.45231 9.24189 8.5034 9.21234 8.56234C9.12972 8.72984 9.00551 8.87334 8.85158 8.97912C8.69765 9.0849 8.51916 9.14942 8.33318 9.1665C8.33318 8.72448 8.50877 8.30055 8.82133 7.98799C9.13389 7.67543 9.55782 7.49984 9.99984 7.49984ZM13.7498 16.6665H6.24984V14.9998C6.24984 14.4473 6.46934 13.9174 6.86004 13.5267C7.25074 13.136 7.78064 12.9165 8.33318 12.9165H11.6665C12.219 12.9165 12.7489 13.136 13.1396 13.5267C13.5303 13.9174 13.7498 14.4473 13.7498 14.9998V16.6665Z" fill="#5B46F4"/>
</g>
<defs>
<clipPath id="clip0_192_1007">
<rect width="20" height="20" fill="white"/>
</clipPath>
</defs>
</svg>
