<svg width="20" height="20" viewBox="0 0 20 20" fill="none" xmlns="http://www.w3.org/2000/svg">
<g clip-path="url(#clip0_73_307)">
<path d="M10 20C15.5228 20 20 15.5228 20 10C20 4.47715 15.5228 0 10 0C4.47715 0 0 4.47715 0 10C0 15.5228 4.47715 20 10 20Z" fill="url(#paint0_linear_73_307)"/>
<path d="M12.1243 4.44446H7.87984C5.98651 4.44446 4.44873 5.98224 4.44873 7.87557V12.12C4.44873 14.0133 5.98651 15.5511 7.87984 15.5511H12.1243C14.0176 15.5511 15.5554 14.0133 15.5554 12.12V7.87557C15.5554 5.98224 14.0176 4.44446 12.1243 4.44446ZM14.3154 12.1245C14.3154 13.3333 13.3332 14.32 12.1198 14.32H7.8754C6.66651 14.32 5.67984 13.3378 5.67984 12.1245V7.88001C5.67984 6.67112 6.66206 5.68446 7.8754 5.68446H12.1198C13.3287 5.68446 14.3154 6.66668 14.3154 7.88001V12.1245Z" fill="white"/>
<path d="M9.99967 7.16C8.43522 7.16 7.15967 8.43556 7.15967 10C7.15967 11.5644 8.43522 12.84 9.99967 12.84C11.5641 12.84 12.8397 11.5644 12.8397 10C12.8397 8.43556 11.5641 7.16 9.99967 7.16ZM9.99967 11.7244C9.04856 11.7244 8.27522 10.9511 8.27522 10C8.27522 9.04889 9.04856 8.27556 9.99967 8.27556C10.9508 8.27556 11.7241 9.04889 11.7241 10C11.7241 10.9511 10.9508 11.7244 9.99967 11.7244Z" fill="white"/>
<path d="M13.0561 7.47137C13.3177 7.42895 13.4954 7.18246 13.453 6.92081C13.4106 6.65916 13.1641 6.48143 12.9025 6.52385C12.6408 6.56626 12.4631 6.81276 12.5055 7.07441C12.5479 7.33606 12.7944 7.51378 13.0561 7.47137Z" fill="white"/>
</g>
<defs>
<linearGradient id="paint0_linear_73_307" x1="2.38573" y1="17.6143" x2="16.5968" y2="3.40316" gradientUnits="userSpaceOnUse">
<stop stop-color="#FEE411"/>
<stop offset="0.0518459" stop-color="#FEDB16"/>
<stop offset="0.1381" stop-color="#FEC125"/>
<stop offset="0.2481" stop-color="#FE983D"/>
<stop offset="0.3762" stop-color="#FE5F5E"/>
<stop offset="0.5" stop-color="#FE2181"/>
<stop offset="1" stop-color="#9000DC"/>
</linearGradient>
<clipPath id="clip0_73_307">
<rect width="20" height="20" fill="white"/>
</clipPath>
</defs>
</svg>
