<svg width="56" height="56" viewBox="0 0 56 56" fill="none" xmlns="http://www.w3.org/2000/svg">
<g clip-path="url(#clip0_1_55)">
<path d="M46 0.5H10C4.75329 0.5 0.5 4.75329 0.5 10V46C0.5 51.2467 4.75329 55.5 10 55.5H46C51.2467 55.5 55.5 51.2467 55.5 46V10C55.5 4.75329 51.2467 0.5 46 0.5Z" fill="#F4F2FF" stroke="#5B46F4"/>
<mask id="mask0_1_55" style="mask-type:luminance" maskUnits="userSpaceOnUse" x="13" y="13" width="30" height="30">
<path d="M43 13H13V43H43V13Z" fill="white"/>
</mask>
<g mask="url(#mask0_1_55)">
<path fill-rule="evenodd" clip-rule="evenodd" d="M17.5502 28.5859C17.5502 28.0196 18.0093 27.5605 18.5756 27.5605H19.8098C20.0525 27.5605 20.2492 27.7573 20.2492 28C20.2492 28.2427 20.0525 28.4395 19.8098 28.4395H18.5756C18.4947 28.4395 18.4291 28.505 18.4291 28.5859V32.958C18.4291 33.6141 17.9467 34.1703 17.2971 34.2631L13.8789 34.7514V35.7509H19.8097C20.0524 35.7509 20.2492 35.9476 20.2492 36.1904C20.2492 36.4331 20.0524 36.6298 19.8097 36.6298H13.7324C13.3279 36.6298 13 36.3019 13 35.8974V34.6244C13 34.2598 13.2681 33.9509 13.6288 33.8993L17.1729 33.393C17.3894 33.3621 17.5502 33.1767 17.5502 32.958V28.5859Z" fill="#5B46F4"/>
<path fill-rule="evenodd" clip-rule="evenodd" d="M18.4292 22.0693H19.8098C20.0525 22.0693 20.2492 21.8726 20.2492 21.6299C20.2492 21.3872 20.0525 21.1904 19.8098 21.1904H18.2827C17.8782 21.1904 17.5503 21.5184 17.5503 21.9229V23.157C17.5503 23.5614 17.8782 23.8894 18.2827 23.8894H19.8098C20.0525 23.8894 20.2493 23.6926 20.2493 23.4499C20.2493 23.2072 20.0525 23.0105 19.8098 23.0105H18.4292V22.0693Z" fill="#5B46F4"/>
<path fill-rule="evenodd" clip-rule="evenodd" d="M31.7741 29.6677C32.0633 28.9448 32.7635 28.4707 33.5422 28.4707H38.0106C38.2533 28.4707 38.4501 28.6675 38.4501 28.9102C38.4501 29.1529 38.2533 29.3496 38.0106 29.3496H33.5422C33.1229 29.3496 32.7459 29.6049 32.5901 29.9942L31.5024 32.7135C31.4122 32.9388 31.1565 33.0485 30.9311 32.9583C30.7058 32.8682 30.5962 32.6124 30.6863 32.3871L31.7741 29.6677Z" fill="#5B46F4"/>
<path fill-rule="evenodd" clip-rule="evenodd" d="M33.9307 23.7117C33.9307 22.8217 34.6521 22.1003 35.542 22.1003H35.8972C36.3017 22.1003 36.6296 22.4283 36.6296 22.8328V28.91C36.6296 29.1528 36.4329 29.3495 36.1902 29.3495C35.9475 29.3495 35.7507 29.1528 35.7507 28.91V22.9792H35.542C35.1375 22.9792 34.8096 23.3071 34.8096 23.7117V26.797C34.8096 27.2015 34.4816 27.5294 34.0771 27.5294H31.9019C31.4973 27.5294 31.1694 27.8573 31.1694 28.2618V28.4705H33.5418C33.7845 28.4705 33.9812 28.6673 33.9812 28.91C33.9812 29.1527 33.7845 29.3494 33.5418 29.3494H31.0229C30.6185 29.3494 30.2905 29.0215 30.2905 28.617V28.2618C30.2905 27.3719 31.0119 26.6505 31.9019 26.6505H33.9307V23.7117Z" fill="#5B46F4"/>
<path fill-rule="evenodd" clip-rule="evenodd" d="M39.4643 34.8391C38.2155 35.0417 37.3675 36.2184 37.5702 37.4671C37.7728 38.7159 38.9495 39.564 40.1982 39.3613C41.447 39.1586 42.2951 37.982 42.0924 36.7332C41.8897 35.4844 40.7131 34.6364 39.4643 34.8391ZM36.7026 37.6079C36.4222 35.88 37.5956 34.2519 39.3235 33.9715C41.0514 33.6911 42.6795 34.8645 42.96 36.5924C43.2404 38.3203 42.067 39.9484 40.339 40.2289C38.6111 40.5093 36.983 39.3359 36.7026 37.6079Z" fill="#5B46F4"/>
<path fill-rule="evenodd" clip-rule="evenodd" d="M39.8304 36.6299C39.5705 36.6299 39.3599 36.8406 39.3599 37.1004C39.3599 37.3603 39.5705 37.571 39.8304 37.571C40.0903 37.571 40.301 37.3603 40.301 37.1004C40.301 36.8406 40.0903 36.6299 39.8304 36.6299ZM38.481 37.1004C38.481 36.3552 39.0851 35.751 39.8304 35.751C40.5757 35.751 41.1799 36.3552 41.1799 37.1004C41.1799 37.8457 40.5757 38.4499 39.8304 38.4499C39.0851 38.4499 38.481 37.8457 38.481 37.1004Z" fill="#5B46F4"/>
<path fill-rule="evenodd" clip-rule="evenodd" d="M24.9038 34.8393C23.655 35.042 22.8069 36.2186 23.0096 37.4674C23.2123 38.7162 24.3889 39.5642 25.6377 39.3615C26.8865 39.1589 27.7345 37.9822 27.5318 36.7334C27.3292 35.4847 26.1525 34.6366 24.9038 34.8393ZM22.142 37.6082C21.8616 35.8803 23.035 34.2522 24.763 33.9717C26.4909 33.6913 28.119 34.8647 28.3994 36.5926C28.6798 38.3206 27.5064 39.9487 25.7785 40.2291C24.0506 40.5095 22.4225 39.3361 22.142 37.6082Z" fill="#5B46F4"/>
<path fill-rule="evenodd" clip-rule="evenodd" d="M25.2699 36.6299C25.01 36.6299 24.7993 36.8406 24.7993 37.1004C24.7993 37.3603 25.01 37.571 25.2699 37.571C25.5298 37.571 25.7404 37.3603 25.7404 37.1004C25.7404 36.8406 25.5298 36.6299 25.2699 36.6299ZM23.9204 37.1004C23.9204 36.3552 24.5246 35.751 25.2699 35.751C26.0152 35.751 26.6194 36.3552 26.6194 37.1004C26.6194 37.8457 26.0152 38.4499 25.2699 38.4499C24.5246 38.4499 23.9204 37.8457 23.9204 37.1004Z" fill="#5B46F4"/>
<path fill-rule="evenodd" clip-rule="evenodd" d="M20.3955 19.3391C20.3146 19.3391 20.249 19.4047 20.249 19.4856V36.5144C20.249 36.5953 20.3146 36.6609 20.3955 36.6609H22.1002V23.1619C22.1002 22.9192 22.297 22.7225 22.5397 22.7225C22.7824 22.7225 22.9791 22.9192 22.9791 23.1619V37.1003C22.9791 37.343 22.7824 37.5398 22.5397 37.5398H20.3955C19.8292 37.5398 19.3701 37.0807 19.3701 36.5144V19.4856C19.3701 18.9193 19.8292 18.4602 20.3955 18.4602H21.9537C22.5201 18.4602 22.9791 18.9193 22.9791 19.4856V21.0526C22.9791 21.2953 22.7824 21.492 22.5397 21.492C22.297 21.492 22.1002 21.2953 22.1002 21.0526V19.4856C22.1002 19.4047 22.0347 19.3391 21.9537 19.3391H20.3955Z" fill="#5B46F4"/>
<path fill-rule="evenodd" clip-rule="evenodd" d="M39.8306 17.5503C40.0733 17.5503 40.27 17.747 40.27 17.9897V24.1299C40.27 24.3726 40.0733 24.5694 39.8306 24.5694C39.5879 24.5694 39.3911 24.3726 39.3911 24.1299V17.9897C39.3911 17.747 39.5879 17.5503 39.8306 17.5503Z" fill="#5B46F4"/>
<path fill-rule="evenodd" clip-rule="evenodd" d="M39.8306 25.7998C40.0733 25.7998 40.27 25.9966 40.27 26.2393V28C40.27 28.2427 40.0733 28.4395 39.8306 28.4395C39.5879 28.4395 39.3911 28.2427 39.3911 28V26.2393C39.3911 25.9966 39.5879 25.7998 39.8306 25.7998Z" fill="#5B46F4"/>
<path fill-rule="evenodd" clip-rule="evenodd" d="M38.0103 17.5503C38.253 17.5503 38.4497 17.747 38.4497 17.9897V29.5168C38.4497 29.7595 38.253 29.9563 38.0103 29.9563C37.7676 29.9563 37.5708 29.7595 37.5708 29.5168V17.9897C37.5708 17.747 37.7676 17.5503 38.0103 17.5503Z" fill="#5B46F4"/>
<path fill-rule="evenodd" clip-rule="evenodd" d="M24.8306 26.8337C24.8306 20.7014 29.8018 15.7302 35.9341 15.7302H38.9517C39.6798 15.7302 40.27 16.3205 40.27 17.0486V17.9897C40.27 18.2324 40.0733 18.4292 39.8306 18.4292H35.8791C31.2677 18.4292 27.5295 22.1674 27.5295 26.7788V32.5503C27.5295 32.793 27.3328 32.9897 27.0901 32.9897C26.8474 32.9897 26.6506 32.793 26.6506 32.5503V26.7788C26.6506 21.682 30.7823 17.5503 35.8791 17.5503H39.3911V17.0486C39.3911 16.8059 39.1943 16.6091 38.9517 16.6091H35.9341C30.2872 16.6091 25.7095 21.1868 25.7095 26.8337V32.5503C25.7095 32.793 25.5127 32.9898 25.27 32.9898C25.0273 32.9898 24.8306 32.793 24.8306 32.5503V26.8337Z" fill="#5B46F4"/>
<path fill-rule="evenodd" clip-rule="evenodd" d="M32.979 30.7302C32.979 30.4875 33.1758 30.2908 33.4185 30.2908H36.5544C36.7971 30.2908 36.9938 30.4875 36.9938 30.7302C36.9938 30.9729 36.7971 31.1697 36.5544 31.1697H33.4185C33.1758 31.1697 32.979 30.9729 32.979 30.7302Z" fill="#5B46F4"/>
<path fill-rule="evenodd" clip-rule="evenodd" d="M25.5392 27.6525C25.7311 27.8011 25.7662 28.0771 25.6177 28.269L22.8876 31.7963C22.739 31.9882 22.463 32.0234 22.2711 31.8748C22.0792 31.7263 22.044 31.4503 22.1925 31.2583L24.9227 27.731C25.0712 27.5391 25.3472 27.5039 25.5392 27.6525Z" fill="#5B46F4"/>
<path fill-rule="evenodd" clip-rule="evenodd" d="M27.5301 22.8455C27.6515 22.6353 27.9202 22.5633 28.1304 22.6847L30.3728 23.9794C31.0183 24.352 31.2395 25.1774 30.8668 25.8228C30.4942 26.4683 29.6688 26.6894 29.0234 26.3168L27.0894 25.2002C26.8792 25.0788 26.8072 24.8101 26.9286 24.5999C27.0499 24.3897 27.3187 24.3177 27.5289 24.439L29.4628 25.5556C29.6879 25.6855 29.9757 25.6085 30.1056 25.3833C30.2355 25.1583 30.1585 24.8705 29.9334 24.7405L27.6909 23.4458C27.4808 23.3245 27.4087 23.0557 27.5301 22.8455Z" fill="#5B46F4"/>
<path fill-rule="evenodd" clip-rule="evenodd" d="M39.9768 27.5856C40.123 27.6372 40.2311 27.7619 40.2615 27.9138L40.6595 29.9038C40.9633 31.4227 41.1347 32.9646 41.1722 34.5123C41.178 34.7549 40.9861 34.9563 40.7435 34.9622C40.5009 34.9681 40.2994 34.7762 40.2935 34.5335C40.2573 33.0366 40.0915 31.5452 39.7976 30.0762L39.5445 28.8105L35.874 31.8692C35.0052 32.5932 33.9102 32.9896 32.7793 32.9896H25.7095V34.3702C25.7095 34.6129 25.5127 34.8097 25.27 34.8097C25.0273 34.8097 24.8306 34.6129 24.8306 34.3702V32.5502C24.8306 32.3075 25.0273 32.1107 25.27 32.1107H32.7793C33.7046 32.1107 34.6005 31.7863 35.3113 31.194L39.5492 27.6624C39.6683 27.5632 39.8307 27.534 39.9768 27.5856Z" fill="#5B46F4"/>
<path fill-rule="evenodd" clip-rule="evenodd" d="M32.2197 36.1904C32.2197 35.9477 32.4165 35.751 32.6592 35.751H37.2557C37.4984 35.751 37.6952 35.9477 37.6952 36.1904C37.6952 36.4331 37.4984 36.6299 37.2557 36.6299H32.6592C32.4165 36.6299 32.2197 36.4331 32.2197 36.1904Z" fill="#5B46F4"/>
<path fill-rule="evenodd" clip-rule="evenodd" d="M27.4053 36.1904C27.4053 35.9477 27.602 35.751 27.8447 35.751H30.6085C30.8512 35.751 31.0479 35.9477 31.0479 36.1904C31.0479 36.4331 30.8512 36.6299 30.6085 36.6299H27.8447C27.602 36.6299 27.4053 36.4331 27.4053 36.1904Z" fill="#5B46F4"/>
<path fill-rule="evenodd" clip-rule="evenodd" d="M27.4053 38.0105C27.4053 37.7678 27.602 37.571 27.8447 37.571H37.2562C37.4989 37.571 37.6956 37.7678 37.6956 38.0105C37.6956 38.2532 37.4989 38.45 37.2562 38.45H27.8447C27.602 38.45 27.4053 38.2532 27.4053 38.0105Z" fill="#5B46F4"/>
</g>
</g>
<defs>
<clipPath id="clip0_1_55">
<rect width="56" height="56" fill="white"/>
</clipPath>
</defs>
</svg>
