<svg width="16" height="16" viewBox="0 0 16 16" fill="none" xmlns="http://www.w3.org/2000/svg">
<g clip-path="url(#clip0_5_101)">
<path d="M8 16C12.4183 16 16 12.4183 16 8C16 3.58172 12.4183 0 8 0C3.58172 0 0 3.58172 0 8C0 12.4183 3.58172 16 8 16Z" fill="#D7F1FF"/>
<mask id="mask0_5_101" style="mask-type:luminance" maskUnits="userSpaceOnUse" x="4" y="4" width="8" height="8">
<path d="M12 4H4V12H12V4Z" fill="white"/>
</mask>
<g mask="url(#mask0_5_101)">
<path d="M11.9979 12L11.9999 11.9997V9.06566C11.9999 7.63032 11.6909 6.52466 10.0129 6.52466C9.20626 6.52466 8.66492 6.96732 8.44392 7.38699H8.42059V6.65866H6.82959V11.9997H8.48626V9.35499C8.48626 8.65866 8.61826 7.98532 9.48059 7.98532C10.3303 7.98532 10.3429 8.77999 10.3429 9.39966V12H11.9979Z" fill="#0077B5"/>
<path d="M4.13184 6.65894H5.7905V11.9999H4.13184V6.65894Z" fill="#0077B5"/>
<path d="M4.96067 4C4.43033 4 4 4.43033 4 4.96067C4 5.491 4.43033 5.93033 4.96067 5.93033C5.491 5.93033 5.92133 5.491 5.92133 4.96067C5.921 4.43033 5.49067 4 4.96067 4Z" fill="#0077B5"/>
</g>
</g>
<defs>
<clipPath id="clip0_5_101">
<rect width="16" height="16" fill="white"/>
</clipPath>
</defs>
</svg>
