<svg width="14" height="14" viewBox="0 0 14 14" fill="none" xmlns="http://www.w3.org/2000/svg">
<g clip-path="url(#clip0_88_272)">
<path d="M11.0833 4.66667V4.08333C11.0833 3.00037 10.6531 1.96175 9.88734 1.19598C9.12157 0.430207 8.08296 0 6.99999 0C5.91702 0 4.87841 0.430207 4.11264 1.19598C3.34686 1.96175 2.91666 3.00037 2.91666 4.08333V4.66667H1.16666V12.25C1.16666 12.7141 1.35103 13.1592 1.67922 13.4874C2.00741 13.8156 2.45253 14 2.91666 14H11.0833C11.5475 14 11.9926 13.8156 12.3208 13.4874C12.6489 13.1592 12.8333 12.7141 12.8333 12.25V4.66667H11.0833ZM4.08332 4.08333C4.08332 3.30979 4.39061 2.56792 4.9376 2.02094C5.48458 1.47396 6.22644 1.16667 6.99999 1.16667C7.77354 1.16667 8.5154 1.47396 9.06239 2.02094C9.60937 2.56792 9.91666 3.30979 9.91666 4.08333V4.66667H4.08332V4.08333ZM11.6667 12.25C11.6667 12.4047 11.6052 12.5531 11.4958 12.6625C11.3864 12.7719 11.238 12.8333 11.0833 12.8333H2.91666C2.76195 12.8333 2.61357 12.7719 2.50418 12.6625C2.39478 12.5531 2.33332 12.4047 2.33332 12.25V5.83333H11.6667V12.25Z" fill="#5B46F4"/>
<path d="M7.58332 8.16666H6.41666V10.5H7.58332V8.16666Z" fill="#5B46F4"/>
</g>
<defs>
<clipPath id="clip0_88_272">
<rect width="14" height="14" fill="white"/>
</clipPath>
</defs>
</svg>
