<svg width="20" height="20" viewBox="0 0 20 20" fill="none" xmlns="http://www.w3.org/2000/svg">
<path d="M9.99984 17.3437C9.91259 17.3437 9.82465 17.3193 9.7484 17.2705C9.47865 17.099 3.14746 13.0008 3.14746 7.00894C3.1474 3.23031 6.22115 0.15625 9.99984 0.15625C13.7785 0.15625 16.8523 3.23031 16.8523 7.009C16.8523 13.0008 10.5211 17.099 10.2513 17.2706C10.175 17.3194 10.0871 17.3437 9.99984 17.3437ZM9.99984 1.09375C6.73809 1.09375 4.0849 3.74725 4.0849 7.009C4.0849 11.8482 8.84077 15.4922 9.99984 16.308C11.1583 15.4907 15.9148 11.8402 15.9148 7.009C15.9148 3.74725 13.2616 1.09375 9.99984 1.09375Z" fill="black"/>
<path d="M10 10.4688C8.01819 10.4688 6.40625 8.8565 6.40625 6.875C6.40625 4.8935 8.01819 3.28125 10 3.28125C11.9818 3.28125 13.5938 4.8935 13.5938 6.875C13.5938 8.8565 11.9818 10.4688 10 10.4688ZM10 4.21875C8.53513 4.21875 7.34375 5.41044 7.34375 6.875C7.34375 8.33956 8.53513 9.53125 10 9.53125C11.4649 9.53125 12.6562 8.33956 12.6562 6.875C12.6562 5.41044 11.4649 4.21875 10 4.21875Z" fill="#5B46F4"/>
<path d="M10 19.8438C6.76394 19.8438 3.28125 19.1105 3.28125 17.5001C3.28125 16.6758 4.20656 16.0148 5.95762 15.5885C6.20544 15.5271 6.463 15.6803 6.524 15.933C6.58563 16.1845 6.43125 16.4381 6.17975 16.4991C4.57881 16.8891 4.21869 17.3643 4.21869 17.5001C4.21869 17.9961 6.4135 18.9064 9.99994 18.9064C13.5864 18.9064 15.7812 17.9961 15.7812 17.5001C15.7812 17.3643 15.4211 16.8892 13.8201 16.4991C13.5687 16.4381 13.4142 16.1845 13.4759 15.933C13.5369 15.681 13.7945 15.5275 14.0422 15.5885C15.7934 16.0148 16.7186 16.6758 16.7186 17.5001C16.7186 19.1105 13.2361 19.8438 10 19.8438Z" fill="#5B46F4"/>
</svg>
