<svg width="20" height="20" viewBox="0 0 20 20" fill="none" xmlns="http://www.w3.org/2000/svg">
<g clip-path="url(#clip0_5_138)">
<path d="M10 20C15.5228 20 20 15.5228 20 10C20 4.47715 15.5228 0 10 0C4.47715 0 0 4.47715 0 10C0 15.5228 4.47715 20 10 20Z" fill="#DDE7FF"/>
<mask id="mask0_5_138" style="mask-type:luminance" maskUnits="userSpaceOnUse" x="5" y="5" width="10" height="10">
<path d="M15 5H5V15H15V5Z" fill="white"/>
</mask>
<g mask="url(#mask0_5_138)">
<path d="M13.75 5.41675H6.25C5.91848 5.41675 5.60054 5.54844 5.36612 5.78286C5.1317 6.01729 5 6.33523 5 6.66675V14.5834H15V6.66675C15 6.33523 14.8683 6.01729 14.6339 5.78286C14.3995 5.54844 14.0815 5.41675 13.75 5.41675ZM6.25 6.25008H13.75C13.8605 6.25008 13.9665 6.29398 14.0446 6.37212C14.1228 6.45026 14.1667 6.55624 14.1667 6.66675V6.94466L10.8842 10.2276C10.6493 10.4615 10.3314 10.5928 10 10.5928C9.66858 10.5928 9.35065 10.4615 9.11583 10.2276L5.83333 6.94466V6.66675C5.83333 6.55624 5.87723 6.45026 5.95537 6.37212C6.03351 6.29398 6.13949 6.25008 6.25 6.25008ZM5.83333 13.7501V8.12508L8.52667 10.8167C8.91776 11.2069 9.44761 11.4259 10 11.4259C10.5524 11.4259 11.0822 11.2069 11.4733 10.8167L14.1667 8.12508V13.7501H5.83333Z" fill="#5B46F4"/>
</g>
</g>
<defs>
<clipPath id="clip0_5_138">
<rect width="20" height="20" fill="white"/>
</clipPath>
</defs>
</svg>
