<svg width="316" height="192" viewBox="0 0 316 192" fill="none" xmlns="http://www.w3.org/2000/svg">
<g clip-path="url(#clip0_479_3360)">
<path d="M299.103 101.498C298.869 103.085 298.673 104.072 298.625 104.307C293.97 126.301 278.84 144.909 258.563 159.249C258.215 159.494 257.864 159.739 257.513 159.984C257.11 160.263 256.704 160.543 256.298 160.812C253.399 162.786 250.401 164.671 247.32 166.469C247.216 166.531 247.11 166.589 247.006 166.648C246.359 167.028 245.712 167.397 245.058 167.759C243.639 168.563 242.204 169.34 240.755 170.099C237.939 171.583 235.064 172.991 232.141 174.327C231.391 174.672 230.637 175.014 229.879 175.345C219.706 179.845 209.01 183.486 198.211 186.202C194.637 187.103 191.057 187.9 187.477 188.594C177.979 190.44 168.508 191.551 159.351 191.886C152.238 192.148 144.641 191.965 136.812 191.306C133.707 191.044 130.567 190.713 127.403 190.299C121.341 189.515 115.203 188.452 109.099 187.096C108.5 186.965 107.905 186.827 107.306 186.689C106.579 186.52 105.856 186.347 105.13 186.171C101.522 185.291 97.9347 184.304 94.3888 183.213C93.6315 182.986 92.8775 182.748 92.1271 182.506C91.9962 182.465 91.8689 182.423 91.7415 182.382C91.5074 182.302 91.2698 182.226 91.0323 182.147C86.5741 180.68 82.1917 179.041 77.9435 177.222C77.6922 177.115 77.4444 177.008 77.193 176.898C76.026 176.394 74.8693 175.876 73.7263 175.341C70.2459 173.719 66.8721 171.973 63.6223 170.099C61.4982 168.877 59.4327 167.601 57.4291 166.261C57.0573 166.016 56.6855 165.768 56.3171 165.516C55.095 164.677 53.8969 163.822 52.723 162.938C51.4424 161.982 50.1927 160.995 48.9775 159.984C38.5636 151.325 30.6181 140.765 26.6178 128.147C26.2666 127.033 25.9396 125.901 25.6469 124.744C23.6468 116.928 22.9789 108.238 23.7638 99.6582C25.1202 84.7459 30.859 70.1821 41.5828 61.185C50.5817 53.6305 62.5276 50.4658 73.7263 49.4063C73.7986 49.396 73.8744 49.3925 73.9501 49.3856C88.4676 48.0431 101.68 50.2242 105.498 50.9248C118.787 53.3717 130.829 58.645 150.813 56.3914C152.417 56.2085 157.922 55.5459 167.957 52.7815C168.174 52.7229 168.395 52.6607 168.618 52.5986C169.586 52.3294 170.529 52.0568 171.448 51.7842C199.925 43.3738 206.542 34.1213 223.376 29.8315C224.543 29.5313 225.755 29.2621 226.998 29.0171C228.85 28.6582 230.778 28.3579 232.764 28.1336C249.165 26.2803 269.414 29.3967 283.13 42.1245C296.566 54.5934 299.809 72.629 300.06 86.078C300.188 92.7697 299.571 98.3295 299.103 101.498Z" fill="#E6EDFA"/>
<path d="M257.514 159.984C237.371 173.958 212.333 183.776 187.477 188.597C177.979 190.44 168.509 191.551 159.348 191.89C152.235 192.152 144.638 191.969 136.809 191.31C126.461 190.444 115.706 188.752 105.127 186.171C100.617 185.07 96.1417 183.81 91.7421 182.382C91.5045 182.302 91.267 182.23 91.0329 182.147C86.5747 180.68 82.1923 179.038 77.9441 177.222C77.6928 177.115 77.4449 177.008 77.1936 176.898C76.0266 176.394 74.8699 175.873 73.7235 175.338C64.6178 171.093 56.2006 165.996 48.9746 159.98H257.51L257.514 159.984Z" fill="#D8DFF3"/>
<path d="M299.108 101.498C298.873 103.085 298.677 104.072 298.626 104.307C289.313 148.343 238.005 178.796 187.481 188.597C187.481 188.425 187.474 188.249 187.46 188.073C187.35 186.892 186.799 185.802 186.538 184.642C185.495 180.107 188.996 175.707 192.962 173.288C196.928 170.869 201.561 169.585 205.228 166.727C203.327 165.274 204.828 162.241 206.543 160.574C210.609 156.619 215.528 153.544 220.864 151.629C220.003 144.889 227.381 138.542 233.891 140.413C233.977 137.144 236.662 134.138 239.891 133.7C243.124 133.262 246.511 135.436 247.462 138.563C247.737 136.202 248.405 133.893 249.42 131.747C250.312 129.869 253.101 130.011 253.755 131.985C253.758 131.999 253.762 132.013 253.768 132.026C255.927 127.668 262.719 126.656 266.048 130.197C264.885 125.859 270.097 121.335 274.214 123.105C272.241 120.199 271.704 116.137 273.567 113.159C275.433 110.181 279.956 108.993 282.666 111.226C280.741 107.934 283.165 103.023 286.945 102.564C288.873 102.329 290.787 103.075 292.732 103.123C293.703 103.147 294.763 102.878 295.586 102.357C296.667 101.674 297.916 101.384 299.108 101.505V101.498Z" fill="#CAD4EF"/>
<path d="M232.679 45.4272C232.679 53.9722 220.565 60.9193 205.517 61.078C205.342 61.0815 205.169 61.0815 204.994 61.0815C203.92 61.0815 202.859 61.0435 201.816 60.978C197.396 65.2746 191.093 66.662 185.447 64.9226C183.911 64.4498 182.428 63.7458 181.04 62.8071C180.958 62.7518 180.882 62.6966 180.803 62.6414C180.82 62.7553 180.837 62.8692 180.851 62.9831C180.892 63.3316 180.913 63.6836 180.913 64.0322C180.913 68.0528 178.231 71.7213 173.825 74.4926C173.415 74.7549 172.985 75.0033 172.544 75.2449C169.153 77.1154 164.915 78.4959 160.192 79.1861C159.693 79.2586 159.193 79.3241 158.691 79.3794C158.274 79.4277 157.858 79.4691 157.441 79.5036C153.603 79.8349 149.737 79.7141 145.919 79.1343C145.809 79.1171 145.702 79.0998 145.595 79.0826C140.882 78.3199 136.679 76.8669 133.357 74.9309C129.959 72.9499 127.477 70.4617 126.306 67.6869C125.855 67.7042 125.401 67.718 124.946 67.718C124.544 67.718 124.141 67.7111 123.742 67.6973C122.037 67.6386 120.392 67.4523 118.825 67.152C118.502 67.0899 118.185 67.0243 117.868 66.9519C114.894 66.2858 112.24 65.209 110.081 63.832C109.513 64.3152 108.921 64.7673 108.305 65.1883C107.492 65.744 106.611 66.2651 105.675 66.7517C105.365 66.9139 105.048 67.0692 104.725 67.221C104.325 67.4109 103.912 67.5938 103.496 67.7663H103.492C102.786 68.0631 102.057 68.3392 101.303 68.5911C97.3953 69.906 92.8717 70.6584 88.0486 70.6584H87.8903C80.0618 70.6308 73.748 64.2255 73.748 56.3776V49.4063C73.8203 49.396 73.8961 49.3925 73.9718 49.3856C88.4893 48.0431 101.702 50.2242 105.52 50.9248C118.808 53.3682 130.851 58.6415 150.835 56.388C152.439 56.205 157.944 55.5424 167.979 52.7781C168.196 52.7194 168.416 52.6573 168.64 52.5952C169.607 52.326 170.551 52.0533 171.47 51.7807C199.944 43.3703 206.564 34.1178 223.395 29.8281C224.565 29.5313 225.773 29.2586 227.016 29.0136C227.123 31.1119 226.796 33.2343 226.025 35.236C229.805 37.7277 232.225 40.8924 232.631 44.3746C232.672 44.7231 232.693 45.0752 232.693 45.4237L232.679 45.4272Z" fill="#CAD4EF"/>
<path d="M190.186 51.7842C190.186 51.7842 190.179 51.8014 190.172 51.8394C190.089 52.1155 189.707 53.42 188.995 55.5252C188.492 57.0057 187.824 58.8831 186.977 61.0815C186.519 62.2756 186.01 63.5594 185.445 64.926C182.56 71.9284 178.274 81.0601 172.367 90.6024C172.164 90.9303 171.957 91.2616 171.751 91.5929C169.964 94.4332 168.033 97.3011 165.953 100.162C165.953 100.166 165.953 100.169 165.95 100.169C165.816 100.352 165.681 100.535 165.547 100.718C165.389 100.935 165.227 101.153 165.065 101.37C164.862 101.643 164.659 101.919 164.452 102.188C164.452 102.188 164.452 102.188 164.449 102.191C160.187 107.837 155.333 113.387 149.842 118.491C136.584 130.815 126.253 144.129 118.855 155.994C118.855 155.994 118.855 155.996 118.855 155.998C118.649 156.326 118.445 156.657 118.246 156.981C116.008 160.622 114.049 164.122 112.369 167.4C112.256 167.621 112.149 167.835 112.042 168.049C108.242 175.576 105.942 181.912 105.14 186.168C100.63 185.067 96.1546 183.807 91.7549 182.378C91.5174 182.299 91.2798 182.226 91.0457 182.144C86.5876 180.677 82.2051 179.034 77.957 177.219C77.7056 177.112 77.4578 177.005 77.2065 176.894C76.0394 176.391 74.8827 175.869 73.7363 175.334V145.386C83.0176 132.002 96.6572 116.841 116.631 101.97C119.192 100.065 120.294 96.7627 119.389 93.6981C119.385 93.6843 119.378 93.667 119.375 93.6532C118.8 91.7102 118.087 89.429 117.296 87.1824C116.848 85.9123 116.304 84.6872 115.664 83.5138C115.664 83.5138 115.664 83.5138 115.664 83.5104C115.571 83.3344 115.474 83.1618 115.375 82.9892C115.278 82.8167 115.178 82.6441 115.075 82.475C115.075 82.475 115.075 82.4739 115.075 82.4716C113.615 80.0523 111.76 77.885 109.577 76.0594C107.216 74.0853 104.224 71.4694 101.312 68.6015C101.308 68.598 101.301 68.5911 101.298 68.5877C100.176 67.4833 99.0636 66.3445 98.0032 65.1849C96.8568 63.9528 95.7724 62.669 94.7465 61.3369C94.3782 60.8606 94.0167 60.374 93.6656 59.884C92.0682 57.6166 90.908 55.4251 90.4949 53.4752C90.4949 53.4752 94.0856 54.1102 97.8896 51.7807L101.415 56.1429L104.272 59.6769L105.797 61.5612C106.152 61.9995 106.741 62.1962 107.271 62.0064C107.76 61.8304 108.083 61.3955 108.131 60.9055L108.407 58.1273L108.503 57.1403L108.658 55.5907C108.658 55.5907 109.412 56.2637 110.868 56.8608C112.028 57.337 113.633 57.7615 115.657 57.7581C115.836 57.7581 116.018 57.7546 116.204 57.7477C116.218 57.7477 116.235 57.7477 116.249 57.7477H116.252C117.223 57.7063 118.287 57.5648 119.433 57.2887C120.015 59.3145 120.707 61.3093 121.502 63.2592C122.143 64.8122 122.904 66.4066 123.744 67.6938C124.315 68.5739 124.924 69.309 125.558 69.7818C126.525 70.51 127.909 72.2769 129.389 74.4304C129.568 74.6927 129.751 74.9619 129.933 75.2346C130.766 76.477 131.62 77.8126 132.433 79.1343C133.748 81.2637 134.97 83.3413 135.872 84.9046C136.512 86.0193 137.934 86.399 139.043 85.7536C139.225 85.6466 139.394 85.5155 139.542 85.3636C140.062 84.8321 140.661 84.2144 141.325 83.5311C141.325 83.5311 141.325 83.5276 141.328 83.5242L141.817 83.0169C142.909 81.8849 144.151 80.5907 145.494 79.1826C145.528 79.1481 145.559 79.1136 145.594 79.0757C148.107 76.4321 150.95 73.3986 153.763 70.3133C154.372 69.6472 154.978 68.9742 155.581 68.3047C160.435 62.9071 164.945 57.5717 167.179 54.0964C167.179 54.0964 167.179 54.0964 167.179 54.093C167.323 53.8721 167.454 53.6547 167.582 53.4476C167.723 53.2129 167.85 52.9886 167.964 52.7712C168.181 52.7125 168.401 52.6504 168.625 52.5883C169.592 52.3191 170.535 52.0464 171.455 51.7738H190.189L190.186 51.7842Z" fill="#D8DFF3"/>
<path d="M155.197 104.069C151.589 105.025 147.86 106.012 144.28 107.278C135.236 110.477 128.847 115.109 125.298 121.041C123.167 124.599 122.065 128.582 121.194 132.358C119.328 140.423 118.292 148.661 118.096 156.94C118.096 156.985 118.13 157.019 118.171 157.019C118.199 157.019 118.223 157.006 118.24 156.981C118.44 156.654 118.643 156.326 118.85 155.998L118.86 155.96C119.111 148.067 120.134 140.219 121.91 132.523C122.767 128.806 123.848 124.893 125.928 121.421C129.387 115.64 135.646 111.116 144.525 107.975C148.077 106.719 151.792 105.736 155.386 104.783C158.364 103.996 161.417 103.185 164.409 102.212L164.447 102.184C164.653 101.912 164.857 101.639 165.06 101.366C165.084 101.332 165.077 101.284 165.042 101.26C165.022 101.246 164.994 101.239 164.97 101.249C161.744 102.333 158.422 103.216 155.193 104.069H155.197Z" fill="#CAD4EF"/>
<path d="M112.363 167.404C112.363 167.404 112.359 167.421 112.356 167.425C112.252 167.625 112.149 167.828 112.049 168.032C112.046 168.039 112.042 168.046 112.035 168.049C112.035 168.049 112.029 168.06 112.022 168.063C111.984 168.084 111.939 168.073 111.915 168.035C111.464 167.318 110.989 166.617 110.483 165.934C109.574 164.702 108.321 163.155 106.668 162.106C104.403 160.671 101.463 160.343 98.9054 161.154C97.9759 161.454 97.2461 162.186 96.9466 163.117C94.9533 169.202 92.8946 175.714 91.7482 182.378C91.5107 182.299 91.2732 182.226 91.0391 182.144C92.2887 174.931 94.5884 167.921 96.7228 161.426L96.7951 161.302L96.8915 161.223C99.9795 159.477 104.069 159.58 107.064 161.482C108.817 162.596 110.128 164.212 111.078 165.495C111.523 166.099 111.949 166.714 112.356 167.345C112.366 167.362 112.369 167.383 112.366 167.404H112.363Z" fill="#647CBE"/>
<path d="M182.358 54.0239C181.318 57.6856 180.055 61.2748 178.585 64.7742C177.187 68.1045 175.597 71.352 173.824 74.496C172.557 76.7496 171.194 78.9514 169.741 81.098C169.521 81.419 169.304 81.7399 169.08 82.0643C167.5 84.3697 165.864 86.751 165.083 89.4256C164.649 90.9579 164.477 92.5558 164.577 94.1467C164.577 94.1571 164.58 94.164 164.584 94.1744C164.601 94.2158 164.646 94.233 164.687 94.2158C167.262 93.07 169.789 91.831 172.264 90.4954C172.288 90.4816 172.319 90.4851 172.34 90.4954C172.378 90.5196 172.388 90.5645 172.364 90.6024C172.161 90.9303 171.954 91.2616 171.748 91.5929C171.738 91.6033 171.731 91.6102 171.717 91.6205C169.417 92.8353 167.08 93.9673 164.701 95.013C164.67 95.0268 164.653 95.0578 164.656 95.0958C164.859 96.8145 165.296 98.4952 165.954 100.096C165.964 100.117 165.961 100.145 165.951 100.162C165.951 100.166 165.951 100.169 165.947 100.169C165.813 100.352 165.679 100.535 165.544 100.718C165.537 100.728 165.527 100.738 165.513 100.745C165.475 100.763 165.427 100.745 165.41 100.704C164.691 99.0266 164.202 97.2562 163.957 95.4444C163.957 95.4375 163.957 95.4306 163.95 95.4237C163.933 95.3857 163.888 95.365 163.851 95.3822C156.232 98.6677 148.273 101.08 140.114 102.567C139.718 102.637 139.325 102.709 138.926 102.778C135.415 103.399 131.783 104.041 128.826 105.974C124.529 108.783 122.391 113.753 120.326 118.56C119.493 120.503 118.629 122.508 117.63 124.365C114.418 130.335 109.492 135.163 104.724 139.833C100.92 143.56 96.9849 147.415 93.9451 151.829C91.8003 154.945 90.0618 158.407 88.3784 161.751C86.5848 165.316 84.7327 169.002 82.3745 172.308C81.1765 173.989 79.672 175.693 77.9438 177.219C77.6925 177.112 77.4447 177.005 77.1934 176.894C78.987 175.352 80.543 173.599 81.772 171.876C84.0992 168.615 85.9376 164.954 87.7174 161.416C89.4112 158.048 91.1634 154.569 93.3357 151.408C96.4134 146.935 100.376 143.056 104.204 139.305C108.931 134.677 113.819 129.887 116.98 124.013C117.961 122.187 118.818 120.196 119.644 118.267C121.754 113.359 123.937 108.283 128.416 105.353C131.5 103.337 135.208 102.681 138.792 102.046C139.188 101.977 139.584 101.908 139.973 101.836C148.166 100.342 156.163 97.9085 163.806 94.5885C163.837 94.5747 163.854 94.5471 163.851 94.5126C163.703 92.7283 163.875 90.9303 164.364 89.2116C165.179 86.4266 166.846 83.9935 168.457 81.6433C168.677 81.3224 168.897 81.0014 169.114 80.677C170.316 78.9031 171.455 77.0913 172.529 75.2449C173.948 72.805 175.256 70.3064 176.447 67.7491C176.798 66.9967 177.139 66.2409 177.466 65.4782C179.108 61.6923 180.499 57.7995 181.632 53.8169C181.642 53.7755 181.687 53.7513 181.728 53.7651L182.289 53.9239C182.33 53.9342 182.355 53.9791 182.344 54.0205L182.358 54.0239Z" fill="#CAD4EF"/>
<path d="M143.746 83.9728C144.807 84.0695 145.926 84.1454 147.072 84.1454C149.172 84.1454 151.351 83.89 153.372 83.041C156.026 81.9263 158.212 79.8556 160.137 78.0265L165.015 73.3986C166.216 72.2562 167.583 70.9621 168.278 69.2814C168.939 67.6904 168.932 65.9096 168.929 64.3428C168.922 60.8917 168.908 57.0023 167.717 53.4718C167.703 53.4303 167.659 53.4096 167.621 53.4234C167.604 53.4303 167.59 53.4407 167.579 53.4579C167.456 53.665 167.321 53.879 167.18 54.1033C167.166 54.124 167.163 54.1447 167.17 54.1689C168.175 57.444 168.185 60.9504 168.196 64.3497C168.199 65.851 168.203 67.5489 167.6 69.0053C166.963 70.5445 165.659 71.78 164.509 72.8705L159.631 77.4985C157.658 79.369 155.616 81.3051 153.086 82.368C150.115 83.6174 146.731 83.5104 143.815 83.2446C143.192 83.1894 142.538 83.1169 141.88 83.01C141.856 83.0065 141.829 83.0134 141.812 83.0341L141.323 83.5414C141.292 83.5725 141.295 83.6208 141.323 83.6519C141.333 83.6622 141.347 83.6691 141.361 83.6726C142.173 83.8279 142.979 83.9141 143.743 83.9866L143.746 83.9728Z" fill="#CAD4EF"/>
<path d="M73.7266 156.598C73.7266 156.643 73.761 156.678 73.8057 156.678C73.8161 156.678 73.8298 156.678 73.8402 156.671C77.7338 154.8 81.0318 151.877 83.359 148.229C84.1473 146.977 84.8186 145.638 85.4658 144.347C86.206 142.87 86.9737 141.344 87.9032 139.964C90.6091 135.954 94.8263 133.01 98.5443 130.415L107.526 124.147C110.098 122.353 113.296 120.12 114.8 116.831C116.642 112.804 115.485 108.262 113.203 104.683C113.179 104.645 113.131 104.635 113.093 104.659C113.079 104.666 113.072 104.676 113.065 104.697L112.659 105.007C112.604 105.021 112.587 105.083 112.614 105.125C114.762 108.507 115.847 112.769 114.132 116.524C112.711 119.63 109.605 121.797 107.109 123.54L98.1277 129.807C94.3546 132.44 90.0789 135.426 87.2973 139.55C86.3403 140.972 85.5622 142.518 84.8117 144.016C84.1714 145.292 83.507 146.618 82.7393 147.839C80.536 151.29 77.4377 154.072 73.7748 155.887C73.7472 155.901 73.7334 155.925 73.7334 155.956V156.602L73.7266 156.598Z" fill="#CAD4EF"/>
<path d="M120.433 70.4306C123.018 72.9637 126.457 74.2096 129.834 75.3588C129.876 75.3726 129.92 75.3485 129.934 75.307C129.941 75.2829 129.938 75.2587 129.924 75.238C129.741 74.9654 129.559 74.6962 129.38 74.4339L129.342 74.4063C126.189 73.3192 123.249 72.1527 120.952 69.9026C117.789 66.8035 116.66 62.4792 116.319 57.8236C116.319 57.7822 116.281 57.7512 116.24 57.7512C116.043 57.7581 115.847 57.7615 115.658 57.7615C115.616 57.7615 115.582 57.796 115.582 57.8409C115.582 57.8409 115.582 57.8443 115.582 57.8478C115.933 62.669 117.104 67.1658 120.44 70.4306H120.433Z" fill="#CAD4EF"/>
<path d="M101.357 68.6222C103.43 68.498 105.502 68.4013 107.574 68.3392L107.609 68.3461C110.576 69.7887 112.783 71.9111 113.878 74.4028C114.814 76.5391 114.962 78.9756 115.024 81.0911C115.038 81.5398 115.048 81.9884 115.055 82.4371L115.066 82.4716C115.272 82.8098 115.468 83.1549 115.654 83.5069C115.675 83.5449 115.723 83.5587 115.757 83.538C115.782 83.5242 115.799 83.4966 115.799 83.4689C115.799 82.6683 115.785 81.8676 115.761 81.067C115.696 78.8789 115.544 76.3596 114.553 74.1026C113.568 71.8594 111.75 69.906 109.323 68.4358C109.285 68.4151 109.275 68.3668 109.296 68.3289C109.309 68.3047 109.334 68.2909 109.361 68.2909C109.864 68.2805 110.366 68.2736 110.869 68.2667C112.07 68.2529 113.138 68.2805 114.029 68.7602C114.955 69.2641 115.589 70.2235 116.16 71.1657C118.897 75.697 121.028 80.5666 122.498 85.657C123.052 87.5827 123.476 89.7707 122.405 91.3893C121.737 92.397 120.57 93.0148 119.541 93.5566C119.482 93.5877 119.424 93.6187 119.365 93.6498C119.369 93.6636 119.376 93.6808 119.379 93.6946C119.403 93.7706 119.424 93.8499 119.445 93.9259L119.975 94.164C121.011 93.6153 122.271 92.9319 123.021 91.7965C124.261 89.926 123.81 87.5378 123.207 85.4499C121.72 80.3008 119.565 75.3692 116.794 70.7826C116.171 69.7542 115.475 68.7016 114.384 68.1114C113.337 67.5455 112.17 67.5109 110.866 67.5282C109.836 67.542 108.803 67.5627 107.771 67.5903L107.736 67.5834C107.454 67.4488 107.165 67.3177 106.869 67.1969C104.066 66.0442 101.075 65.5369 98.1313 65.1297L98.0625 65.2608C98.2725 65.4886 98.4825 65.7164 98.6959 65.9407L98.7407 65.9648C101.068 66.303 103.405 66.731 105.622 67.5144C105.664 67.5282 105.684 67.5731 105.667 67.6145C105.657 67.6455 105.629 67.6628 105.598 67.6662C103.998 67.7284 102.397 67.8112 100.792 67.9147C100.748 67.9147 100.717 67.9561 100.72 67.9975C100.72 68.0148 100.731 68.0355 100.744 68.0459C100.93 68.2322 101.116 68.4151 101.302 68.598C101.316 68.6118 101.34 68.6222 101.361 68.6188L101.357 68.6222Z" fill="#CAD4EF"/>
<path d="M236.706 36.1851C236.706 39.191 235.208 41.9968 232.612 44.378C227.741 48.8541 218.997 51.8394 209.017 51.8394H209C208.232 51.8394 207.471 51.8187 206.717 51.7842C206.421 51.7704 206.132 51.7531 205.839 51.7358C202.658 54.8281 198.503 56.4121 194.324 56.4121C192.523 56.4121 190.719 56.1188 188.988 55.5252C187.535 55.0282 186.134 54.3207 184.826 53.3993C184.898 53.8583 184.936 54.3242 184.936 54.7901C184.936 57.7201 183.511 60.4637 181.032 62.8071C180.97 62.8657 180.908 62.9244 180.843 62.9831C180.161 63.6112 179.407 64.2082 178.581 64.7707C178.226 65.0158 177.858 65.2505 177.479 65.4817C175.648 66.586 173.537 67.542 171.207 68.3116C170.281 68.6188 169.32 68.8948 168.329 69.1399C168.033 69.2123 167.733 69.2848 167.434 69.3504C164.284 70.0544 160.848 70.4444 157.254 70.4444C156.07 70.4444 154.902 70.403 153.756 70.3202C145.456 69.73 138.302 67.0588 133.971 63.2661C132.309 61.8062 131.062 60.1808 130.329 58.4448C129.878 58.4621 129.427 58.4759 128.969 58.4759C125.854 58.4897 122.755 58.0445 119.771 57.1472C117.774 56.5502 115.87 55.6908 114.101 54.5899C113.44 55.1525 112.748 55.6701 112.021 56.1498C111.646 56.3983 111.257 56.6364 110.858 56.8677C110.083 57.3198 109.26 57.7443 108.396 58.1377C107.109 58.7244 105.721 59.242 104.258 59.6838C104.028 59.7528 103.79 59.8218 103.556 59.8874C100.671 60.6777 97.714 61.1643 94.7327 61.3403C93.8445 61.3955 92.9529 61.4197 92.0612 61.4128C89.9716 61.4128 87.9404 61.2713 85.9885 61.0056C79.8021 60.16 75.0169 55.3699 73.9531 49.3856C88.4706 48.0431 101.683 50.2242 105.501 50.9248C118.79 53.3682 130.832 58.6415 150.816 56.388C152.42 56.205 157.925 55.5424 167.96 52.7781C168.177 52.7194 168.397 52.6573 168.621 52.5952C169.589 52.326 170.532 52.0533 171.451 51.7807C199.925 43.3703 206.545 34.1178 223.376 29.8281C224.546 29.5313 225.755 29.2587 226.997 29.0136C228.85 28.6547 230.781 28.3545 232.767 28.1301C235.267 30.4804 236.706 33.2343 236.706 36.1816V36.1851Z" fill="#CAD4EF"/>
<path d="M136.813 191.306C91.9044 187.545 39.3393 168.253 26.6188 128.144C26.2677 127.029 25.9407 125.897 25.648 124.744C23.6479 116.928 22.9835 108.234 23.7684 99.6582C24.7254 99.6892 25.6687 100.007 26.5052 100.611C27.3452 101.218 28.4469 101.501 29.4693 101.425C31.5142 101.273 33.5591 100.252 35.5765 100.455C39.5252 100.849 41.842 106.833 39.6629 111.012C42.6166 108.11 47.3158 109.37 49.1369 112.983C50.9546 116.596 50.2007 121.666 47.9871 125.369C52.4005 122.974 57.6608 128.347 56.2356 133.79C59.9019 129.234 66.9903 130.166 69.0558 135.481C69.0627 135.464 69.0662 135.446 69.0696 135.429C69.8511 132.948 72.7876 132.637 73.6345 134.925C74.6019 137.541 75.194 140.381 75.3696 143.298C76.5159 139.37 80.1823 136.506 83.5561 136.899C86.9298 137.293 89.6116 140.899 89.5462 144.954C96.4796 142.321 103.929 149.858 102.711 158.269C108.226 160.398 113.249 163.98 117.335 168.705C119.056 170.696 120.492 174.392 118.426 176.29C122.141 179.666 126.95 181.039 131.005 183.859C133.477 185.577 135.736 188.221 136.82 191.313L136.813 191.306Z" fill="#CAD4EF"/>
<path d="M113.61 39.3739C102.026 36.8718 89.7599 32.0644 84.0555 21.6524C82.0072 17.9148 80.9744 13.3455 82.4788 9.35255C84.4996 3.99295 90.4588 1.16303 96.1115 0.341662C103.128 -0.679872 110.464 0.607398 116.716 3.96189C125.301 8.56915 132.183 17.0244 141.826 18.3876C149.203 19.4298 156.364 16.0098 163.466 13.7665C170.572 11.5233 179.261 10.7675 184.604 15.9718C185.881 17.2177 186.094 18.8708 186.218 19.5472C187.261 25.2415 181.633 30.4666 179.598 32.3578C176.82 34.9358 170.372 39.8088 150.188 41.4411C139.327 42.3177 128.252 42.5386 113.61 39.3774V39.3739Z" fill="#E6EDFA"/>
<path d="M69.2032 83.7727H1.42524C0.519833 82.2024 0 80.3767 0 78.4303C0 72.5254 4.77489 67.7387 10.6686 67.7387C12.4485 67.7387 14.1216 68.177 15.5984 68.9501C16.256 60.4706 23.3271 53.7962 31.9542 53.7962C41.0152 53.7962 48.3617 61.1609 48.3617 70.2442C48.3617 72.6117 47.8625 74.8618 46.964 76.8946C54.369 79.2482 61.6329 82.1299 69.2067 83.7727H69.2032Z" fill="#D8DFF3"/>
<path d="M225.818 16.9381H262.293C262.782 16.0926 263.06 15.1125 263.06 14.0633C263.06 10.8849 260.489 8.31031 257.322 8.31031C256.365 8.31031 255.463 8.54499 254.671 8.96258C254.316 4.40019 250.512 0.807564 245.868 0.807564C240.993 0.807564 237.038 4.76946 237.038 9.6597C237.038 10.9332 237.306 12.1445 237.788 13.2385C233.802 14.5051 229.894 16.0581 225.818 16.9416V16.9381Z" fill="#D8DFF3"/>
<path d="M221.58 74.8032H314.055C315.291 72.66 316 70.1718 316 67.5144C316 59.4595 309.484 52.9265 301.445 52.9265C299.018 52.9265 296.732 53.5235 294.722 54.5796C293.823 43.0114 284.177 33.9039 272.407 33.9039C260.044 33.9039 250.023 43.9501 250.023 56.3431C250.023 59.5734 250.704 62.6414 251.93 65.4196C241.826 68.6326 231.915 72.5634 221.584 74.8032H221.58Z" fill="#D8DFF3"/>
<path d="M268.63 125.145C265.928 132.83 257.218 137.5 249.359 135.709H249.355C245.63 134.86 242.098 132.558 239.489 128.441L240.508 145.424L181.777 145.078L181.223 133.093L178.076 65.1711L192.948 65.3851L236.776 66.0166H237.014C243.592 66.1132 249.572 69.5264 253.053 74.9171C253.789 76.0559 254.412 77.288 254.908 78.5925L268.296 113.98C269.846 118.07 269.78 121.88 268.63 125.145Z" fill="#687ED4"/>
<path d="M219.365 82.3128L234.096 127.702C234.585 129.207 234.716 130.808 234.478 132.375C233.779 136.975 230.054 140.513 225.431 140.958L182.805 145.078L240.506 145.424L239.487 128.441L219.365 82.3128Z" fill="#536AC5"/>
<path d="M210.591 27.571L194.207 33.1308C188.499 60.5811 200.342 59.9771 200.342 59.9771L200.101 64.2082C200.077 64.6154 200.084 65.0261 200.115 65.4334C200.511 70.3236 204.79 73.968 209.668 73.5711C214.546 73.1742 218.182 68.8845 217.782 63.9942L216.305 45.7723L219.476 45.5135C222.134 45.296 224.11 42.9631 223.896 40.2988C223.883 40.1228 223.858 39.9502 223.831 39.7777C223.287 36.6337 220.299 34.5285 217.163 35.0738L215.507 35.3637L210.591 27.5676V27.571Z" fill="#FFC1C2"/>
<path d="M188.924 27.2812C189.144 25.3934 190.766 23.7748 192.941 23.0121C192.773 22.4668 190.983 16.386 194.563 12.4862C196.542 10.3292 199.173 9.91854 200.488 9.71147C208.74 8.42075 215.962 15.3955 217.405 16.7863C219.315 18.6326 218.809 18.7293 223.443 23.9922C224.131 24.7756 225.185 25.9594 226.076 27.8195C226.076 27.8195 227.023 29.8005 227.378 32.1611C227.908 35.6916 224.579 43.8949 217.115 52.464L216.554 45.5411L219.622 45.2926H219.625C221.842 45.1062 223.691 43.3876 223.88 41.1685C223.921 40.6957 223.897 40.2194 223.818 39.7535C223.291 36.72 220.41 34.6873 217.38 35.2153C216.448 35.3775 215.752 36.1678 215.711 37.1169L215.594 39.7949C215.583 40.0365 215.408 40.2436 215.157 40.285C214.926 40.323 214.699 40.1849 214.595 39.9744L211.538 33.7348C211.521 33.7003 211.504 33.6692 211.487 33.6381C211.067 32.9168 210.144 32.6718 209.421 33.0894C206.881 34.5699 199.61 36.0539 194.966 34.5561C192.48 33.7555 191.003 31.985 190.594 31.4708C189.86 30.5459 188.707 29.0965 188.92 27.2812H188.924Z" fill="#32477B"/>
<path d="M178.207 57.2059C178.207 57.2059 180.699 42.9527 186.335 42.3764C191.967 41.8 192.742 48.723 192.742 48.723L191.602 58.0203L178.207 57.2059Z" fill="#FFC1C2"/>
<path d="M189.805 50.4727L190.8 53.7686C190.952 54.2552 191.027 54.7659 191.027 55.2767C191.027 55.8392 190.587 56.3017 190.025 56.3258L178.207 57.2059L191.602 58.0203L192.618 49.748L189.805 50.4727Z" fill="#EE9C9E"/>
<path d="M181.773 42.2936C181.773 43.0804 181.539 43.8224 181.143 44.4436C180.616 45.2477 179.8 45.8586 178.826 46.1105L149.639 53.6236C148.658 53.8755 147.674 53.9963 146.71 53.9963H146.613C140.41 53.9446 135.07 48.8852 135.07 42.2936C135.07 34.6597 142.255 29.0619 149.639 30.9704L178.826 38.4835C179.686 38.7078 180.427 39.2082 180.946 39.8812C181.473 40.5542 181.773 41.3928 181.773 42.2901V42.2936Z" fill="#77BBCB"/>
<path d="M181.142 44.4436C180.616 45.2477 179.8 45.8586 178.826 46.1105L149.639 53.6236C148.658 53.8755 147.673 53.9963 146.71 53.9963H146.613L140.42 43.4531L181.136 44.4298L181.146 44.4471L181.142 44.4436Z" fill="#589FAD"/>
<path d="M146.823 53.9998C153.227 53.9998 158.418 48.7958 158.418 42.3764C158.418 35.957 153.227 30.753 146.823 30.753C140.42 30.753 135.229 35.957 135.229 42.3764C135.229 48.7958 140.42 53.9998 146.823 53.9998Z" fill="#9BCFDC"/>
<path d="M146.823 51.9188C152.081 51.9188 156.342 47.6465 156.342 42.3764C156.342 37.1063 152.081 32.834 146.823 32.834C141.566 32.834 137.305 37.1063 137.305 42.3764C137.305 47.6465 141.566 51.9188 146.823 51.9188Z" fill="#32477B"/>
<path d="M140.514 46.4625C140.28 46.4625 140.056 46.3348 139.942 46.114C139.502 45.2719 138.565 43.0114 139.34 40.2712C140.09 37.6138 141.991 36.1885 142.772 35.7019C143.072 35.5155 143.471 35.6053 143.66 35.909C143.85 36.2127 143.757 36.6096 143.454 36.7994C142.8 37.21 141.209 38.4007 140.582 40.6232C139.935 42.9182 140.72 44.8094 141.089 45.5135C141.254 45.831 141.13 46.2209 140.817 46.3866C140.72 46.4349 140.62 46.4591 140.517 46.4591L140.514 46.4625Z" fill="white"/>
<path d="M144.762 49.9758C144.762 49.9758 144.727 49.9758 144.714 49.9758C142.583 49.817 141.46 48.1915 141.412 48.1191C141.212 47.8223 141.288 47.4219 141.584 47.2218C141.877 47.0216 142.276 47.0975 142.479 47.3909C142.514 47.4426 143.316 48.5712 144.81 48.6851C145.165 48.7127 145.433 49.0233 145.406 49.3787C145.381 49.7169 145.096 49.9758 144.762 49.9758Z" fill="white"/>
<path d="M211.062 42.2936C211.062 43.0804 210.828 43.8224 210.432 44.4436C209.905 45.2477 209.089 45.8586 208.115 46.1105L178.928 53.6236C177.947 53.8755 176.963 53.9963 175.999 53.9963H175.902C169.699 53.9446 164.359 48.8852 164.359 42.2936C164.359 34.6597 171.544 29.0619 178.928 30.9704L208.115 38.4835C208.976 38.7078 209.716 39.2082 210.236 39.8812C210.762 40.5542 211.062 41.3928 211.062 42.2901V42.2936Z" fill="#77BBCB"/>
<path d="M210.435 44.4436C209.909 45.2477 209.093 45.8586 208.119 46.1105L178.932 53.6236C177.951 53.8755 176.966 53.9963 176.003 53.9963H175.906L169.713 43.4531L210.429 44.4298L210.439 44.4471L210.435 44.4436Z" fill="#589FAD"/>
<path d="M176.116 53.9998C182.52 53.9998 187.711 48.7958 187.711 42.3764C187.711 35.957 182.52 30.753 176.116 30.753C169.713 30.753 164.521 35.957 164.521 42.3764C164.521 48.7958 169.713 53.9998 176.116 53.9998Z" fill="#9BCFDC"/>
<path d="M176.116 51.9188C181.374 51.9188 185.635 47.6465 185.635 42.3764C185.635 37.1063 181.374 32.834 176.116 32.834C170.859 32.834 166.598 37.1063 166.598 42.3764C166.598 47.6465 170.859 51.9188 176.116 51.9188Z" fill="#32477B"/>
<path d="M169.805 46.4625C169.571 46.4625 169.347 46.3348 169.233 46.114C168.793 45.2719 167.856 43.0114 168.631 40.2712C169.381 37.6138 171.282 36.1885 172.063 35.7019C172.363 35.5155 172.762 35.6053 172.951 35.909C173.141 36.2127 173.048 36.6096 172.745 36.7994C172.091 37.21 170.5 38.4007 169.874 40.6232C169.226 42.9182 170.011 44.8094 170.38 45.5135C170.545 45.831 170.421 46.2209 170.108 46.3866C170.011 46.4349 169.911 46.4591 169.808 46.4591L169.805 46.4625Z" fill="white"/>
<path d="M174.051 49.9758C174.051 49.9758 174.016 49.9758 174.003 49.9758C171.872 49.817 170.749 48.1915 170.701 48.1191C170.502 47.8223 170.577 47.4219 170.873 47.2218C171.166 47.0216 171.565 47.0975 171.768 47.3909C171.803 47.4426 172.605 48.5712 174.099 48.6851C174.454 48.7127 174.722 49.0233 174.695 49.3787C174.671 49.7169 174.385 49.9758 174.051 49.9758Z" fill="white"/>
<path d="M205.327 47.1113L209.926 57.2128L224.485 56.8573C224.485 56.8573 215.1 33.645 200.094 36.4232C200.094 36.4232 207.464 39.9951 205.327 47.1113Z" fill="#FFC1C2"/>
<path d="M205.327 47.1113L209.926 57.2128L224.485 56.8573L215.001 55.5079C212.15 55.1007 209.696 53.282 208.474 50.6694C207.558 48.7092 207.035 46.5971 206.821 44.4436C206.153 37.707 200.098 36.4232 200.098 36.4232C200.098 36.4232 207.468 39.9951 205.33 47.1113H205.327Z" fill="#EE9C9E"/>
<path d="M226.774 56.4259L210.25 57.1645C209.372 57.2024 208.807 58.1135 209.158 58.9211L215.565 73.6056L235.536 72.6635L228.299 57.3508C228.02 56.7641 227.421 56.4018 226.774 56.4294V56.4259Z" fill="#687ED4"/>
<path d="M232.756 65.6976L231.979 66.0669L256.779 118.567L257.557 118.198L232.756 65.6976Z" fill="#536AC5"/>
<path d="M215.05 71.3498L214.262 71.6954L239.093 128.618L239.881 128.272L215.05 71.3498Z" fill="#536AC5"/>
<path d="M221.242 41.0408C221.242 41.0408 221.644 39.3808 220.797 38.4559C220.236 37.8416 219.224 37.6483 217.782 37.8796L217.641 36.9892C219.4 36.7096 220.684 36.9961 221.462 37.8485C222.632 39.1358 222.13 41.1719 222.109 41.2582L221.238 41.0374L221.242 41.0408Z" fill="#EE9C9E"/>
<path d="M200.098 64.2669C203.561 63.6905 206.714 61.9236 209.017 59.2731C206.391 60.3947 200.342 59.9806 200.342 59.9806L200.098 64.2669Z" fill="#EE9C9E"/>
<path d="M199.401 53.7133L199.178 52.9334C200.176 52.6435 201.202 52.4088 202.228 52.2328C203.237 52.0602 204.266 51.9429 205.285 51.8808L205.333 52.6883C204.342 52.747 203.343 52.8609 202.366 53.03C201.371 53.1991 200.376 53.4303 199.405 53.7099L199.401 53.7133Z" fill="#EE9C9E"/>
<path d="M217.613 45.9034L218.294 45.3754C212.655 38.0694 206.338 34.8253 200.018 35.9987L200.176 36.8477C207.732 35.4465 213.829 40.9994 217.613 45.9069V45.9034Z" fill="#EE9C9E"/>
<path d="M193.824 59.9357L192.946 65.385L182.66 129.12C182.426 130.57 181.93 131.906 181.221 133.093C180.739 133.911 180.157 134.656 179.496 135.319C177.42 137.393 174.57 138.628 171.533 138.628C170.707 138.628 169.867 138.535 169.024 138.345C164.703 137.362 161.519 134.007 160.551 129.949C160.18 128.41 160.128 126.77 160.455 125.117L173.616 58.5C173.802 57.5579 174.656 56.9022 175.609 56.9608L192.279 57.9962C193.263 58.0583 193.983 58.9556 193.824 59.9357Z" fill="#687ED4"/>
<path d="M173.498 59.0181L173.451 59.5336L193.62 61.3843L193.667 60.8688L173.498 59.0181Z" fill="#9AADE2"/>
<path d="M229.2 59.0078L209.709 59.9258L209.733 60.4429L229.224 59.5249L229.2 59.0078Z" fill="#9AADE2"/>
<path d="M179.497 135.319C177.422 137.393 174.571 138.628 171.535 138.628C170.708 138.628 169.868 138.535 169.025 138.345C164.705 137.362 161.52 134.007 160.553 129.949C162.615 128.092 165.345 126.96 168.333 126.96C173.614 126.96 178.076 130.487 179.497 135.319Z" fill="#9AADE2"/>
<path d="M268.63 125.145C265.927 132.83 257.218 137.5 249.358 135.709H249.355C249.255 135.094 249.203 134.463 249.203 133.817C249.203 127.371 254.412 122.149 260.843 122.149C263.834 122.149 266.568 123.281 268.63 125.145Z" fill="#9AADE2"/>
<path d="M253.052 74.9171C251.596 75.5693 249.981 75.9351 248.284 75.9351C242.449 75.9351 237.615 71.6316 236.775 66.0166H237.013C243.592 66.1132 249.572 69.5264 253.052 74.9171Z" fill="#9AADE2"/>
<path d="M192.56 65.1039L181.979 130.672L182.828 130.81L193.41 65.2417L192.56 65.1039Z" fill="#536AC5"/>
<path d="M242.373 169.24C225.467 178.347 206.419 184.922 187.478 188.594C184.008 189.27 180.537 189.846 177.088 190.319L180.692 155.504L180.744 155.004L181.773 145.078L185.595 145.103H186.627L204.484 145.213H204.97L209.362 145.241L210.395 145.248L234.356 145.389H234.566L240.508 145.424L240.845 149.713L242.373 169.24Z" fill="#77BBCB"/>
<path d="M181.775 145.078L240.844 149.71L240.506 145.424L181.775 145.078Z" fill="#5394A5"/>
<path d="M209.362 169.081V183.051C207.675 183.583 205.978 184.09 204.277 184.573L209.362 169.081Z" fill="#5394A5"/>
<path d="M209.878 167.107H208.846V183.072H209.878V167.107Z" fill="#5394A5"/>
<path d="M210.394 145.223H209.361V155.584H210.394V145.223Z" fill="#5394A5"/>
<path d="M208.167 152.467C207.12 152.467 206.27 152.157 205.619 151.536C203.571 149.582 204.462 145.296 204.504 145.113L205.512 145.33C205.505 145.368 204.703 149.234 206.332 150.787C207.051 151.473 208.198 151.611 209.743 151.197L210.008 152.198C209.341 152.378 208.724 152.467 208.167 152.467Z" fill="#5394A5"/>
<path d="M240.813 156.788C239.291 156.788 238.028 156.274 237.05 155.256C234.107 152.195 234.837 145.641 234.868 145.361L235.894 145.482C235.887 145.544 235.188 151.832 237.794 154.538C238.682 155.459 239.835 155.849 241.309 155.732L241.391 156.764C241.195 156.781 240.999 156.788 240.81 156.788H240.813Z" fill="#5394A5"/>
<path d="M181.562 155.591C181.266 155.591 180.959 155.556 180.643 155.491L180.853 154.476C181.779 154.669 182.55 154.5 183.204 153.951C185.727 151.843 185.596 145.154 185.593 145.085L186.626 145.061C186.633 145.358 186.767 152.322 183.865 154.745C183.197 155.304 182.422 155.584 181.562 155.584V155.591Z" fill="#5394A5"/>
<path d="M229.97 22.3702C230.383 21.2003 231.526 20.6377 232.61 21.0243C233.695 21.4108 234.228 22.5669 233.812 23.7369C233.405 24.8861 232.263 25.4486 231.178 25.0621C230.094 24.6756 229.56 23.5194 229.97 22.3702ZM238.019 12.324C238.452 11.1023 237.974 9.98756 236.642 9.51476C235.912 9.25592 235.182 9.28698 234.452 9.51476C233.891 9.69076 233.282 9.46644 233.003 8.94532L232.992 8.92461C232.645 8.27235 232.961 7.46479 233.657 7.22321C234.968 6.77456 236.411 6.69173 237.864 7.2094C240.559 8.16882 241.957 10.3327 240.962 13.1419C239.929 16.0615 236.328 16.1892 234.951 18.5912C234.621 19.171 233.905 19.4091 233.275 19.1883C232.435 18.888 232.073 17.8906 232.535 17.1245C234.018 14.6604 237.313 14.3049 238.015 12.3274L238.019 12.324Z" fill="#32477B"/>
<path d="M30.8501 46.7869L30.5781 45.3754C43.6772 42.8319 52.8001 39.7156 57.9331 37.2204C56.5181 36.1644 55.3477 34.8115 54.5662 33.0894C53.6332 31.036 53.3337 28.596 53.6229 25.4037C54.0291 20.9311 55.4165 17.5593 57.7403 15.3817C59.1242 14.084 61.0245 13.2523 62.9593 13.097C65.0524 12.9279 66.932 13.5595 68.2505 14.8744C70.292 16.9071 71.0253 20.051 70.4263 24.2269C69.9305 27.6711 68.2712 30.0421 67.3761 31.3155C67.2935 31.4329 65.3415 34.1938 62.1812 36.4439C61.7819 36.7269 61.3378 37.0133 60.8489 37.3032C64.202 38.9115 68.4399 39.3325 72.0581 39.3152C84.9196 39.2566 98.0325 36.6993 109.978 31.9195L110.508 33.2551C104.439 35.6847 98.0876 37.5517 91.6361 38.8114C85.1847 40.071 78.599 40.7233 72.0649 40.7544C67.9476 40.7751 63.066 40.2367 59.3376 38.135C53.3131 41.2341 42.6995 44.4885 30.8501 46.7869ZM63.751 14.5085C61.9265 14.474 60.0089 15.2264 58.718 16.4343C56.6593 18.3634 55.4234 21.4246 55.0516 25.5349C54.7831 28.4683 55.0447 30.6771 55.8709 32.4924C56.6455 34.1972 57.878 35.4983 59.3824 36.4784C60.1707 36.047 60.8283 35.6432 61.3516 35.2705C64.3019 33.1688 66.185 30.5149 66.2022 30.4873C67.025 29.3139 68.5604 27.1259 69.0045 24.0198C69.5346 20.3202 68.9425 17.5869 67.2384 15.8924C66.2951 14.9537 65.0455 14.5292 63.7476 14.5051L63.751 14.5085Z" fill="#32477B"/>
<path d="M123.002 30.7047C125.171 32.4786 135.388 39.1358 141.341 19.0502C141.661 17.9735 140.834 17.1038 139.595 17.159C134.204 17.3971 123.632 18.8432 122.53 29.4623C122.478 29.9489 122.661 30.4286 123.002 30.7081V30.7047Z" fill="#77BBCA"/>
<path d="M116.654 31.9885L116.447 30.5666C116.551 30.5528 126.971 28.9722 133.223 23.1432L134.201 24.1958C127.615 30.3354 117.098 31.9264 116.654 31.9885Z" fill="#5394A5"/>
<path d="M248.652 147.47C244.82 148.757 240.882 149.731 236.888 150.369C234.554 150.742 232.076 150.997 229.748 150.345C228.21 149.914 226.815 149.068 225.676 147.957C222.949 150.393 219.624 152.519 215.778 154.29C212.126 155.97 208.267 157.282 204.531 158.548C200.559 159.898 196.455 161.292 192.627 163.124L192.09 161.992C195.983 160.125 200.125 158.721 204.132 157.361C207.836 156.105 211.665 154.804 215.259 153.151C217.899 151.936 221.562 149.934 224.829 147.025C223.545 145.424 222.736 143.439 222.636 141.372C222.44 137.275 225.053 133.245 228.853 131.788C229.903 131.388 230.771 131.333 231.501 131.623C233.308 132.34 233.553 134.704 232.998 136.73C231.962 140.502 229.804 143.995 226.581 147.111C227.566 148.053 228.76 148.768 230.076 149.137C232.058 149.693 234.152 149.537 236.689 149.134C242.462 148.212 248.118 146.583 253.499 144.292L253.984 145.444C252.232 146.19 250.452 146.866 248.652 147.474V147.47ZM229.521 132.875C229.449 132.899 229.373 132.927 229.298 132.955C225.982 134.225 223.703 137.738 223.875 141.31C223.961 143.087 224.647 144.792 225.738 146.176C228.413 143.588 230.716 140.347 231.804 136.389C232.2 134.953 232.131 133.213 231.05 132.782C230.664 132.627 230.162 132.658 229.521 132.872V132.875Z" fill="#32477B"/>
<path d="M263.125 142.321C265.346 143.391 272.555 146.014 278.769 130.18C279.268 128.906 278.865 127.712 277.873 127.65C273.043 127.343 260.688 128.282 262.409 141.334C262.464 141.758 262.743 142.138 263.125 142.321Z" fill="#77BBCA"/>
<path d="M258.735 143.712C257.579 144.102 256.821 144.302 256.711 144.333L256.395 143.122C256.494 143.094 266.526 140.409 271.697 134.663L272.616 135.505C268.599 139.967 262.037 142.601 258.732 143.712H258.735Z" fill="#5394A5"/>
</g>
<defs>
<clipPath id="clip0_479_3360">
<rect width="316" height="192" fill="white"/>
</clipPath>
</defs>
</svg>
