<svg width="139" height="137" viewBox="0 0 139 137" fill="none" xmlns="http://www.w3.org/2000/svg">
<path opacity="0.5" d="M51.5019 38.5903C44.699 50.2913 22.7451 53.8529 15.1017 59.8553C8.10563 65.3496 4.37789 78.0614 4.75902 88.1859C5.13493 98.3155 12.8045 108.388 22.8704 109.236C27.2507 109.603 31.6363 108.304 36.0219 108.602C50.0609 109.566 57.8818 125.358 70.2241 132.135C84.4511 139.945 102.578 134.419 115.74 124.923C124.109 118.884 131.643 110.865 134.311 100.877C136.973 90.8833 133.517 78.7842 124.443 73.8713C116.267 69.4507 103.81 70.0949 100.625 61.3428C98.3961 55.2199 102.74 48.8195 103.716 42.3772C105.246 32.2842 97.5921 22.233 87.8864 19.1481C78.1807 16.0631 69.2947 15.5288 62.1473 22.7987C58.8111 26.1927 53.8983 34.4735 51.5071 38.5903H51.5019Z" fill="#FBBB00"/>
<path opacity="0.5" d="M40.4127 117.684C50.275 117.768 59.8815 120.895 68.0105 126.52C89.2648 141.228 112.289 134.063 119.353 127.814C127.555 120.549 131.758 109.435 132.082 98.4517C132.405 87.4683 129.158 76.6054 124.37 66.7009C120.627 58.9596 115.787 51.5169 108.932 46.3264C102.234 41.2563 94.0472 38.6375 85.9965 36.27C75.6382 33.2269 65.0189 30.4195 54.2429 30.7024C45.4561 30.9276 35.5364 34.264 32.4143 42.4767C29.7568 49.4794 32.9729 57.7445 30.1954 64.7001C26.3058 74.4422 13.17 76.6316 6.67514 84.8547C-0.900407 94.4449 1.45423 107.534 8.57033 111.892C15.9893 116.438 29.4801 117.59 40.4127 117.679V117.684Z" stroke="#FD5900" stroke-width="3.14" stroke-miterlimit="10"/>
<path d="M74.5 11.3379L32.9277 18.8965V110.104L74.5 117.662L116.072 110.104V18.8965L74.5 11.3379Z" fill="url(#paint0_linear_1_20)"/>
<path d="M51.8242 129H97.1758C107.607 129 116.072 120.534 116.072 110.104H32.9277C32.9277 120.534 41.3934 129 51.8242 129ZM97.1758 0H51.8242C41.3934 0 32.9277 8.46562 32.9277 18.8965H116.072C116.072 8.46562 107.607 0 97.1758 0ZM74.5 30.4863C64.0691 30.4863 55.6035 38.952 55.6035 49.3828V60.7207H51.8242C49.7076 60.7207 48.0449 62.3833 48.0449 64.5V94.7344C48.0449 96.8505 49.7076 98.5137 51.8242 98.5137H97.1758C99.2924 98.5137 100.955 96.8505 100.955 94.7344V64.5C100.955 62.3833 99.2924 60.7207 97.1758 60.7207H93.3965V49.3828C93.3965 38.952 84.9309 30.4863 74.5 30.4863ZM74.5 83.3965C72.3833 83.3965 70.7207 81.7333 70.7207 79.6172C70.7207 77.5005 72.3833 75.8379 74.5 75.8379C76.6167 75.8379 78.2793 77.5005 78.2793 79.6172C78.2793 81.7333 76.6167 83.3965 74.5 83.3965ZM85.8379 60.7207H63.1621V49.3828C63.1621 43.1089 68.2261 38.0449 74.5 38.0449C80.7739 38.0449 85.8379 43.1089 85.8379 49.3828V60.7207Z" fill="url(#paint1_linear_1_20)"/>
<defs>
<linearGradient id="paint0_linear_1_20" x1="74.5" y1="117.662" x2="74.5" y2="11.3379" gradientUnits="userSpaceOnUse">
<stop stop-color="#FD5900"/>
<stop offset="1" stop-color="#FFDE00"/>
</linearGradient>
<linearGradient id="paint1_linear_1_20" x1="74.5" y1="129" x2="74.5" y2="0" gradientUnits="userSpaceOnUse">
<stop stop-color="#FFE59A"/>
<stop offset="1" stop-color="#FFFFD5"/>
</linearGradient>
</defs>
</svg>
