<svg width="20" height="20" viewBox="0 0 20 20" fill="none" xmlns="http://www.w3.org/2000/svg">
<path d="M1.15366 18.4154C0.941068 18.4154 0.769043 18.5876 0.769043 18.8001C0.769043 19.0125 0.941068 19.1847 1.15366 19.1847C1.19298 19.1847 18.8856 19.1845 18.846 19.1847C19.0586 19.1847 19.2306 19.0125 19.2306 18.8001C19.2306 18.6001 19.0764 18.4412 18.8812 18.4225C18.8987 18.3486 18.9102 18.2726 18.9102 18.1935C18.9102 16.5936 18.9102 15.6968 18.9102 13.7231C18.9102 12.906 18.4787 12.1896 17.833 11.7844H18.6878C18.9004 11.7844 19.0725 11.6122 19.0725 11.3998V10.6602C19.0725 10.4478 18.9004 10.2756 18.6878 10.2756C18.4752 10.2756 18.3032 10.4478 18.3032 10.6602V11.0152H17.2199L16.524 9.46073C16.0293 8.35609 14.8961 7.64245 13.6371 7.64245H9.39171C8.13308 7.64245 6.99989 8.35609 6.50522 9.46073L5.80902 11.0152H4.72562V10.6602C4.72562 10.4478 4.5536 10.2756 4.34101 10.2756C4.12842 10.2756 3.95639 10.4478 3.95639 10.6602V11.3998C3.95639 11.6122 4.12842 11.7844 4.34101 11.7844H5.19606C4.55026 12.1896 4.11865 12.906 4.11865 13.7231C4.11858 14.1647 4.11893 12.0965 4.1179 18.1935C4.1179 18.27 4.12835 18.3438 4.14471 18.4154H2.11182V7.43587H6.28737C6.70091 7.43587 7.03707 7.09764 7.03707 6.68204V1.72429C7.03707 1.30869 6.70091 0.970459 6.28737 0.970459H1.7257C1.51311 0.970459 1.34108 1.14267 1.34108 1.35507C1.34123 3.06801 1.34243 16.7026 1.34259 18.4154H1.15366ZM6.28737 6.66664H2.11182C2.11179 5.57758 2.11189 9.34409 2.11168 1.73969H6.26784L6.28737 6.66664ZM7.62564 16.8676H15.4025V18.1935C15.4025 18.27 15.4129 18.3438 15.4293 18.4154H7.59885C7.61522 18.3438 7.62564 18.27 7.62564 18.1935V16.8676ZM18.141 16.8676V18.1935C18.141 18.3053 18.0596 18.3944 17.9539 18.4154H16.3578C16.2513 18.3944 16.1717 18.3069 16.1717 18.1935V16.8676H18.141ZM13.7934 12.2028L13.5635 13.1796C13.4444 13.5501 13.1376 13.7627 12.7218 13.7627H10.2218C9.806 13.7627 9.49914 13.5503 9.38871 13.2089L9.1506 12.2028H13.7934ZM7.20759 9.77511C7.57268 8.95968 8.45046 8.41168 9.39171 8.41168H13.6371C14.5788 8.41168 15.4565 8.95968 15.8216 9.77511L16.5627 11.4296H6.46653L7.20759 9.77511ZM6.40832 12.2028H8.36038L8.64802 13.4147C8.86888 14.1039 9.47209 14.5319 10.2218 14.5319H12.7218C13.4711 14.5319 14.0743 14.1039 14.3042 13.3858L14.5836 12.2028H16.6209C17.4592 12.2028 18.141 12.8847 18.141 13.7231V16.0974C18.1024 16.0974 4.446 16.0988 4.88788 16.0974V13.7231C4.88788 12.8847 5.56997 12.2028 6.40832 12.2028ZM4.88713 18.1935V16.8676H6.85641V18.1935C6.85641 18.3069 6.77678 18.3944 6.67053 18.4154H5.07449C4.96873 18.3944 4.88713 18.3053 4.88713 18.1935Z" fill="black"/>
<path d="M6.8101 15.2779C7.44636 15.2779 7.96394 14.7603 7.96394 14.1241C7.96394 13.4878 7.44636 12.9702 6.8101 12.9702C6.17383 12.9702 5.65625 13.4878 5.65625 14.1241C5.65625 14.7603 6.17383 15.2779 6.8101 15.2779ZM6.8101 13.7394C7.02231 13.7394 7.19471 13.912 7.19471 14.1241C7.19471 14.3361 7.02231 14.5087 6.8101 14.5087C6.59788 14.5087 6.42548 14.3361 6.42548 14.1241C6.42548 13.912 6.59788 13.7394 6.8101 13.7394Z" fill="#5B46F4"/>
<path d="M16.2178 15.2779C16.8541 15.2779 17.3717 14.7603 17.3717 14.1241C17.3717 13.4878 16.8541 12.9702 16.2178 12.9702C15.5815 12.9702 15.064 13.4878 15.064 14.1241C15.064 14.7603 15.5815 15.2779 16.2178 15.2779ZM16.2178 13.7394C16.43 13.7394 16.6024 13.912 16.6024 14.1241C16.6024 14.3361 16.43 14.5087 16.2178 14.5087C16.0056 14.5087 15.8332 14.3361 15.8332 14.1241C15.8332 13.912 16.0056 13.7394 16.2178 13.7394Z" fill="#5B46F4"/>
<path d="M2.99771 5.52152C2.99771 5.73392 3.16973 5.90614 3.38232 5.90614C3.59491 5.90614 3.76694 5.73392 3.76694 5.52152V4.74966H4.25372C4.87534 4.74966 5.38127 4.24373 5.38127 3.62192C5.38127 3.00331 4.87534 2.5 4.25372 2.5H3.3812C3.16861 2.5 2.99658 2.67221 2.99658 2.88462V4.36505C2.99658 4.36702 2.99769 4.36866 2.99771 4.37063V5.52152ZM4.61204 3.62192C4.61204 3.81967 4.45128 3.98043 4.25372 3.98043H3.76694V3.26923H4.25372C4.45128 3.26923 4.61204 3.42736 4.61204 3.62192Z" fill="#5B46F4"/>
<path d="M10.2926 6.10749C10.1438 6.25885 10.1457 6.50243 10.2971 6.65136C10.4471 6.79946 10.6905 6.79959 10.841 6.64723C12.4072 5.05574 12.3878 2.49216 10.7963 0.925884C10.6449 0.776395 10.4015 0.778836 10.2524 0.930016C10.1037 1.08138 10.1055 1.32496 10.2569 1.47389C11.5451 2.74262 11.5611 4.81919 10.2926 6.10749Z" fill="#5B46F4"/>
<path d="M9.21919 1.79063C9.07045 1.942 9.07233 2.18558 9.22369 2.33469C10.0327 3.13115 10.0429 4.43787 9.24623 5.2471C9.09749 5.39847 9.09937 5.64205 9.25074 5.79097C9.40073 5.93908 9.64412 5.9392 9.79461 5.78684C10.8887 4.67506 10.8748 2.88063 9.76306 1.78631C9.61169 1.6372 9.3683 1.63927 9.21919 1.79063Z" fill="#5B46F4"/>
<path d="M8.19673 2.65072C8.04798 2.80209 8.04987 3.04566 8.20123 3.19459C8.53214 3.52061 8.53627 4.05547 8.21025 4.38656C8.06151 4.53793 8.06339 4.7815 8.21476 4.93043C8.36475 5.07854 8.60814 5.07866 8.75863 4.9263C9.38212 4.29285 9.37424 3.27008 8.7406 2.64659C8.58923 2.4971 8.34584 2.49954 8.19673 2.65072Z" fill="#5B46F4"/>
</svg>
