<svg width="14" height="14" viewBox="0 0 14 14" fill="none" xmlns="http://www.w3.org/2000/svg">
<g clip-path="url(#clip0_110_360)">
<path d="M7.58331 0.583334C7.58331 0.428624 7.64476 0.280251 7.75416 0.170855C7.86356 0.0614589 8.01193 7.78295e-07 8.16664 7.78295e-07C9.71321 0.00169921 11.196 0.616826 12.2896 1.71042C13.3831 2.80401 13.9983 4.28676 14 5.83333C14 5.98804 13.9385 6.13642 13.8291 6.24581C13.7197 6.35521 13.5713 6.41667 13.4166 6.41667C13.2619 6.41667 13.1136 6.35521 13.0042 6.24581C12.8948 6.13642 12.8333 5.98804 12.8333 5.83333C12.8319 4.59608 12.3398 3.40991 11.4649 2.53504C10.5901 1.66017 9.40389 1.16806 8.16664 1.16667C8.01193 1.16667 7.86356 1.10521 7.75416 0.995813C7.64476 0.886417 7.58331 0.738044 7.58331 0.583334ZM8.16664 3.5C8.78548 3.5 9.37897 3.74583 9.81655 4.18342C10.2541 4.621 10.5 5.2145 10.5 5.83333C10.5 5.98804 10.5614 6.13642 10.6708 6.24581C10.7802 6.35521 10.9286 6.41667 11.0833 6.41667C11.238 6.41667 11.3864 6.35521 11.4958 6.24581C11.6052 6.13642 11.6666 5.98804 11.6666 5.83333C11.6657 4.90536 11.2967 4.01566 10.6405 3.35948C9.98431 2.70331 9.09461 2.33426 8.16664 2.33333C8.01193 2.33333 7.86356 2.39479 7.75416 2.50419C7.64476 2.61358 7.58331 2.76196 7.58331 2.91667C7.58331 3.07138 7.64476 3.21975 7.75416 3.32915C7.86356 3.43854 8.01193 3.5 8.16664 3.5ZM13.4709 9.76442C13.8089 10.1034 13.9988 10.5626 13.9988 11.0413C13.9988 11.5201 13.8089 11.9793 13.4709 12.3183L12.9401 12.9302C8.16255 17.5041 -3.46328 5.88117 1.04005 1.0885L1.71089 0.505167C2.05025 0.176562 2.50535 -0.00522059 2.97772 -0.000853897C3.45008 0.0035128 3.90174 0.193678 4.23497 0.528501C4.25306 0.546584 5.33397 1.95067 5.33397 1.95067C5.65471 2.28762 5.83325 2.73521 5.83249 3.2004C5.83173 3.6656 5.65172 4.1126 5.32989 4.4485L4.65439 5.29783C5.02822 6.20615 5.57784 7.03164 6.27169 7.72689C6.96553 8.42213 7.78991 8.97342 8.69747 9.34908L9.55205 8.6695C9.888 8.34792 10.3349 8.16812 10.8 8.16747C11.265 8.16682 11.7125 8.34536 12.0493 8.666C12.0493 8.666 13.4528 9.74633 13.4709 9.76442ZM12.6682 10.6126C12.6682 10.6126 11.2723 9.53867 11.2542 9.52058C11.134 9.40143 10.9717 9.33457 10.8024 9.33457C10.6332 9.33457 10.4708 9.40143 10.3506 9.52058C10.3349 9.53692 9.15831 10.4743 9.15831 10.4743C9.07902 10.5374 8.98466 10.5788 8.88452 10.5944C8.78438 10.6099 8.68191 10.5991 8.58722 10.563C7.41149 10.1252 6.34357 9.43993 5.45579 8.55346C4.56802 7.667 3.88112 6.60009 3.44164 5.425C3.40267 5.32902 3.38997 5.22439 3.40483 5.12186C3.4197 5.01934 3.4616 4.92263 3.52622 4.84167C3.52622 4.84167 4.46364 3.6645 4.47939 3.64933C4.59854 3.52916 4.6654 3.36678 4.6654 3.19754C4.6654 3.02831 4.59854 2.86593 4.47939 2.74575C4.4613 2.72825 3.38739 1.33117 3.38739 1.33117C3.26541 1.2218 3.10622 1.16322 2.94245 1.16745C2.77868 1.17168 2.62272 1.2384 2.50655 1.35392L1.83572 1.93725C-1.45545 5.89458 8.6193 15.4105 12.0872 12.1333L12.6186 11.5208C12.7432 11.4055 12.818 11.2462 12.8272 11.0767C12.8365 10.9073 12.7795 10.7408 12.6682 10.6126Z" fill="#5B46F4"/>
</g>
<defs>
<clipPath id="clip0_110_360">
<rect width="14" height="14" fill="white"/>
</clipPath>
</defs>
</svg>
