<svg width="56" height="56" viewBox="0 0 56 56" fill="none" xmlns="http://www.w3.org/2000/svg">
<g clip-path="url(#clip0_1_11)">
<path d="M46 0.5H10C4.75329 0.5 0.5 4.75329 0.5 10V46C0.5 51.2467 4.75329 55.5 10 55.5H46C51.2467 55.5 55.5 51.2467 55.5 46V10C55.5 4.75329 51.2467 0.5 46 0.5Z" fill="white" stroke="#62C8FF"/>
<mask id="mask0_1_11" style="mask-type:luminance" maskUnits="userSpaceOnUse" x="15" y="11" width="27" height="33">
<path d="M42 11H15V44H42V11Z" fill="white"/>
</mask>
<g mask="url(#mask0_1_11)">
<path d="M26.8881 43.3522C25.8806 43.7571 24.7926 44.0001 23.6239 44.0001C17.2165 44.0001 13.0254 37.2381 15.8866 31.4479L23.6239 15.9399L24.712 18.086L18.3448 30.8406C15.4836 36.5902 19.6344 43.3927 26.0821 43.3927C26.3642 43.3927 26.606 43.3927 26.8881 43.3927V43.3522Z" fill="url(#paint0_linear_1_11)"/>
<path d="M26.3238 43.3522C26.082 43.3522 25.7999 43.3522 25.5581 43.3522C19.5536 43.3522 15.6447 36.5497 18.3044 30.8L24.2685 18.0454L30.5148 31.4074C32.7312 36.1043 30.5148 41.5301 26.3238 43.3117V43.3522Z" fill="url(#paint1_linear_1_11)"/>
<path d="M39.5016 26.184C38.8166 26.5485 38.0106 26.7914 37.1643 26.7914C33.5777 26.7914 31.2001 22.9853 32.8121 19.746L37.1643 11L38.2524 13.146L35.2703 19.1387C33.6583 22.3374 35.9554 26.1436 39.5016 26.184Z" fill="url(#paint2_linear_1_11)"/>
<path d="M39.5017 26.184C35.9554 26.1031 33.6584 22.3374 35.2703 19.1386L38.2524 13.146L41.5166 19.7055C42.7255 22.1754 41.6778 24.9693 39.5017 26.184Z" fill="url(#paint3_linear_1_11)"/>
<path opacity="0.34" d="M29.0241 31.9338C28.8629 31.6503 28.6211 31.4479 28.2987 31.3669C28.0166 31.2859 27.6136 31.3264 27.3718 31.4884C26.848 31.8123 26.5659 32.5816 26.9286 33.1485C27.0495 33.3105 27.13 33.5129 27.2106 33.6749C27.2912 33.9178 27.3718 34.2013 27.4524 34.4847C27.4524 34.7681 27.4524 35.0516 27.4524 35.335C27.4524 35.5375 27.3718 35.7399 27.2912 35.9424C27.0897 36.5497 27.533 37.3191 28.1375 37.4405C28.8226 37.6025 29.4271 37.2381 29.6286 36.5902C30.1524 35.0516 29.9106 33.2295 29.0241 31.8933V31.9338Z" fill="#FDFFFF"/>
<path opacity="0.34" d="M40.8717 21.2846C40.7911 20.8392 40.5896 20.4343 40.3075 20.1103C40.2269 20.0294 40.106 19.9484 39.9851 19.9079C39.8642 19.8269 39.7433 19.8269 39.6224 19.8269C39.3806 19.8269 39.0986 19.9484 38.9374 20.1103C38.7762 20.3128 38.6553 20.5557 38.6553 20.7987C38.6553 20.8797 38.6553 20.9606 38.6553 21.0416C38.6553 21.1631 38.7359 21.2441 38.8165 21.3251C38.8568 21.3656 38.8971 21.4465 38.9374 21.5275C38.9374 21.5275 38.9374 21.6085 38.9374 21.649C38.9374 21.6895 38.9374 21.73 38.9374 21.7705C38.9374 21.811 38.9374 21.8919 38.8971 21.9324C38.8971 21.9324 38.8971 21.9324 38.8971 21.9729C38.8971 21.9729 38.8971 22.0944 38.8971 22.1349C38.8971 22.2564 38.8971 22.3778 38.8971 22.5398C38.9777 22.7827 39.1389 23.0257 39.3403 23.1067C39.5821 23.2281 39.8239 23.2686 40.106 23.1876L40.3478 23.1067C40.3478 23.1067 40.6299 22.9042 40.7105 22.7422C40.7508 22.6208 40.8314 22.4588 40.8717 22.3373C40.8717 22.2159 40.912 22.1349 40.912 22.0134C40.912 21.8919 40.912 21.7705 40.912 21.6895C40.912 21.5275 40.912 21.3656 40.8717 21.2441V21.2846Z" fill="#FDFFFF"/>
</g>
</g>
<defs>
<linearGradient id="paint0_linear_1_11" x1="20.9642" y1="15.8995" x2="20.9642" y2="44.0001" gradientUnits="userSpaceOnUse">
<stop stop-color="#68CFFF"/>
<stop offset="0.48" stop-color="#38AEEF"/>
<stop offset="1" stop-color="#0087DE"/>
</linearGradient>
<linearGradient id="paint1_linear_1_11" x1="24.3894" y1="14.3203" x2="24.3894" y2="46.9963" gradientUnits="userSpaceOnUse">
<stop stop-color="#68CFFF"/>
<stop offset="1" stop-color="#59BEFF"/>
</linearGradient>
<linearGradient id="paint2_linear_1_11" x1="35.8748" y1="11" x2="35.8748" y2="26.7914" gradientUnits="userSpaceOnUse">
<stop stop-color="#68CFFF"/>
<stop offset="0.48" stop-color="#38AEEF"/>
<stop offset="1" stop-color="#0087DE"/>
</linearGradient>
<linearGradient id="paint3_linear_1_11" x1="38.3733" y1="11.2024" x2="38.3733" y2="28.0466" gradientUnits="userSpaceOnUse">
<stop stop-color="#68CFFF"/>
<stop offset="1" stop-color="#59BEFF"/>
</linearGradient>
<clipPath id="clip0_1_11">
<rect width="56" height="56" fill="white"/>
</clipPath>
</defs>
</svg>
