<svg width="139" height="137" viewBox="0 0 139 137" fill="none" xmlns="http://www.w3.org/2000/svg">
<path opacity="0.1" d="M51.5019 38.5903C44.699 50.2913 22.7451 53.8529 15.1017 59.8553C8.10563 65.3496 4.37789 78.0614 4.75902 88.1859C5.13493 98.3155 12.8045 108.388 22.8704 109.236C27.2507 109.603 31.6363 108.304 36.0219 108.602C50.0609 109.566 57.8818 125.358 70.2241 132.135C84.4511 139.945 102.578 134.419 115.74 124.923C124.109 118.884 131.643 110.865 134.311 100.877C136.973 90.8833 133.517 78.7842 124.443 73.8713C116.267 69.4507 103.81 70.0949 100.625 61.3428C98.3961 55.2199 102.74 48.8195 103.716 42.3772C105.246 32.2842 97.5921 22.233 87.8864 19.1481C78.1807 16.0631 69.2947 15.5288 62.1473 22.7987C58.8111 26.1927 53.8983 34.4735 51.5071 38.5903H51.5019Z" fill="#9537FD"/>
<path opacity="0.2" d="M40.4127 117.684C50.275 117.768 59.8815 120.895 68.0105 126.52C89.2648 141.228 112.289 134.063 119.353 127.814C127.555 120.549 131.758 109.435 132.082 98.4517C132.405 87.4683 129.158 76.6054 124.37 66.7009C120.627 58.9596 115.787 51.5169 108.932 46.3264C102.234 41.2563 94.0472 38.6375 85.9965 36.27C75.6382 33.2269 65.0189 30.4195 54.2429 30.7024C45.4561 30.9276 35.5364 34.264 32.4143 42.4767C29.7568 49.4794 32.9729 57.7445 30.1954 64.7001C26.3058 74.4422 13.17 76.6316 6.67514 84.8547C-0.900406 94.4449 1.45423 107.534 8.57033 111.892C15.9893 116.438 29.4801 117.59 40.4127 117.679V117.684Z" stroke="#5F68ED" stroke-width="3.14" stroke-miterlimit="10"/>
<path d="M133.034 74.2813H49.9502C46.7287 74.2813 44.1099 76.9004 44.1099 80.1216V99.1526C44.1099 102.379 46.729 105.001 49.9502 105.001H59.3221C60.3226 105.001 61.1319 105.812 61.1319 106.813V116.762L72.7426 105.513C73.0787 105.184 73.5312 105.001 74.0016 105.001H133.034C136.255 105.001 138.874 102.379 138.874 99.1526V80.1216C138.874 76.9004 136.255 74.2813 133.034 74.2813ZM75.2299 92.141C76.0959 92.6399 76.3907 93.7492 75.8918 94.6127C75.5557 95.1944 74.9482 95.5202 74.3224 95.5202C74.0147 95.5202 73.7043 95.4401 73.4201 95.2771L69.0845 92.7719V97.7822C69.0845 98.7827 68.2752 99.5945 67.2747 99.5945C66.2742 99.5945 65.465 98.7827 65.465 97.7822V92.7719L61.1294 95.2771C60.8449 95.4398 60.5322 95.5202 60.2271 95.5202C59.6015 95.5202 58.9913 95.1944 58.6577 94.6127C58.1561 93.7492 58.4534 92.6401 59.3196 92.141L63.6552 89.6384L59.3196 87.1332C58.4534 86.6343 58.1561 85.5277 58.6577 84.6615C59.1566 83.7953 60.2631 83.498 61.1294 83.9997L65.465 86.5023V81.4995C65.465 80.499 66.2742 79.6897 67.2747 79.6897C68.2752 79.6897 69.0845 80.499 69.0845 81.4995V86.5023L73.4201 83.9997C74.2861 83.498 75.3927 83.7953 75.8918 84.6615C76.3907 85.5277 76.0961 86.6341 75.2299 87.1332L70.8943 89.6384L75.2299 92.141ZM99.4446 92.141C100.311 92.6427 100.605 93.7492 100.106 94.6152C99.7704 95.1944 99.1629 95.52 98.5371 95.52C98.2295 95.52 97.9193 95.4398 97.6323 95.2768L93.2992 92.7717V97.782C93.2992 98.7825 92.4874 99.5943 91.4894 99.5943C90.4889 99.5943 89.6772 98.7825 89.6772 97.782V92.7767L85.3519 95.2768C85.0649 95.4396 84.7547 95.52 84.4471 95.52C83.8215 95.52 83.2138 95.1942 82.8777 94.6152C82.3788 93.749 82.6734 92.6427 83.5396 92.141L87.8727 89.6384L83.5396 87.1332C82.6734 86.6343 82.3788 85.5277 82.8777 84.6615C83.3793 83.7953 84.4859 83.498 85.3519 83.9997L89.6772 86.497V81.4995C89.6772 80.499 90.4889 79.6897 91.4894 79.6897C92.4874 79.6897 93.2992 80.499 93.2992 81.4995V86.5023L97.6323 83.9997C98.4985 83.498 99.6049 83.7953 100.106 84.6615C100.605 85.5277 100.311 86.6341 99.4446 87.1332L95.1115 89.6384L99.4446 92.141ZM123.664 92.141C124.531 92.6399 124.828 93.7492 124.326 94.6127C123.993 95.1944 123.383 95.5202 122.757 95.5202C122.449 95.5202 122.139 95.4401 121.855 95.2771L117.519 92.7719V97.7822C117.519 98.7827 116.71 99.5945 115.709 99.5945C114.709 99.5945 113.899 98.7827 113.899 97.7822V92.7719L109.564 95.2771C109.279 95.4398 108.969 95.5202 108.662 95.5202C108.036 95.5202 107.426 95.1944 107.092 94.6127C106.591 93.7492 106.888 92.6401 107.754 92.141L112.09 89.6384L107.754 87.1332C106.888 86.6343 106.591 85.5277 107.092 84.6615C107.591 83.7953 108.698 83.498 109.564 83.9997L113.899 86.5023V81.4995C113.899 80.499 114.709 79.6897 115.709 79.6897C116.71 79.6897 117.519 80.499 117.519 81.4995V86.5023L121.855 83.9997C122.721 83.498 123.827 83.7953 124.326 84.6615C124.828 85.5277 124.531 86.6341 123.664 87.1332L119.329 89.6384L123.664 92.141ZM60.5839 122.338C60.2374 122.672 59.7849 122.847 59.3223 122.847C59.0845 122.847 58.8441 122.801 58.6166 122.702C57.9469 122.421 57.5126 121.764 57.5126 121.038V108.623H49.9504C44.7332 108.623 40.4878 104.375 40.4878 99.1524V80.1213C40.4878 74.9041 44.733 70.659 49.9504 70.659H103.899C102.695 65.4365 98.0072 61.5791 92.4849 61.5791H87.1926V43.0447C87.1926 30.604 77.0709 20.482 64.63 20.482C52.1815 20.482 42.057 30.6037 42.057 43.0447V61.5791H36.7647C30.3092 61.5791 25.0529 66.8379 25.0529 73.2987V115.593C25.0529 122.048 30.3089 127.302 36.7647 127.302H92.4847C98.943 127.302 104.196 122.048 104.196 115.593V108.623H74.7361L60.5839 122.338ZM52.6829 43.0449C52.6829 36.4627 58.0424 31.1081 64.63 31.1081C71.2123 31.1081 76.5665 36.4624 76.5665 43.0449V61.5794H52.6829V43.0449ZM13.7463 56.1934C13.7463 57.1931 12.9358 58.0034 11.9363 58.0034C10.9368 58.0034 10.126 57.1931 10.126 56.1934C10.126 26.1444 34.5725 1.69791 64.6214 1.69791C90.1027 1.69791 112.221 19.4664 117.783 44.1591H128.16C128.866 44.1591 129.51 44.57 129.804 45.2137C130.099 45.855 129.996 46.6098 129.536 47.1477L118.331 60.2349C117.987 60.6383 117.485 60.8683 116.955 60.8683C116.428 60.8683 115.924 60.6383 115.58 60.2375L104.367 47.1477C103.907 46.6101 103.803 45.855 104.098 45.2137C104.393 44.57 105.037 44.1591 105.742 44.1591H114.067C108.585 21.5236 88.1362 5.31797 64.6214 5.31797C36.569 5.31822 13.7463 28.1409 13.7463 56.1934Z" fill="url(#paint0_linear_3_43)"/>
<defs>
<linearGradient id="paint0_linear_3_43" x1="74.5" y1="1.69791" x2="74.5" y2="127.302" gradientUnits="userSpaceOnUse">
<stop stop-color="#17A6D7"/>
<stop offset="0.0617" stop-color="#259ADB"/>
<stop offset="0.1856" stop-color="#3B87E2"/>
<stop offset="0.2649" stop-color="#4380E4"/>
<stop offset="1" stop-color="#9735FD"/>
</linearGradient>
</defs>
</svg>
