<svg width="181" height="164" viewBox="0 0 181 164" fill="none" xmlns="http://www.w3.org/2000/svg">
<g filter="url(#filter0_d_79_1964)">
<rect x="27" y="17" width="129" height="129" rx="64.5" fill="#28B446"/>
</g>
<g clip-path="url(#clip0_79_1964)">
<path d="M83.1441 99.0472C81.7249 99.0478 80.3637 98.4836 79.3609 97.4792L67.923 86.0456C66.6923 84.8144 66.6923 82.8188 67.923 81.5877C69.1542 80.357 71.1498 80.357 72.3809 81.5877L83.1441 92.3509L111.619 63.876C112.85 62.6452 114.846 62.6452 116.077 63.876C117.308 65.1071 117.308 67.1027 116.077 68.3338L86.9274 97.4792C85.9246 98.4836 84.5634 99.0478 83.1441 99.0472Z" fill="white"/>
</g>
<path d="M9.5 8.61804L11.1574 13.7188L11.2696 14.0643H11.6329H16.9962L12.6572 17.2168L12.3633 17.4303L12.4755 17.7758L14.1329 22.8766L9.79389 19.7242L9.5 19.5106L9.20611 19.7242L4.8671 22.8766L6.52445 17.7758L6.63671 17.4303L6.34281 17.2168L2.0038 14.0643H7.36712H7.73039L7.84265 13.7188L9.5 8.61804Z" stroke="#FFCD49"/>
<path d="M171.5 93.618L173.157 98.7188L173.27 99.0643H173.633H178.996L174.657 102.217L174.363 102.43L174.476 102.776L176.133 107.877L171.794 104.724L171.5 104.511L171.206 104.724L166.867 107.877L168.524 102.776L168.637 102.43L168.343 102.217L164.004 99.0643H169.367H169.73L169.843 98.7188L171.5 93.618Z" stroke="#FFCD49"/>
<path d="M10 72.618L10.8716 75.3004L10.9838 75.6459H11.3471H14.1675L11.8857 77.3037L11.5918 77.5172L11.7041 77.8627L12.5757 80.5451L10.2939 78.8873L10 78.6738L9.70611 78.8873L7.42435 80.5451L8.2959 77.8627L8.40816 77.5172L8.11426 77.3037L5.8325 75.6459H8.65292H9.01619L9.12844 75.3004L10 72.618Z" stroke="#FFCD49"/>
<path opacity="0.5" d="M139 144.618L139.872 147.3L139.984 147.646H140.347H143.167L140.886 149.304L140.592 149.517L140.704 149.863L141.576 152.545L139.294 150.887L139 150.674L138.706 150.887L136.424 152.545L137.296 149.863L137.408 149.517L137.114 149.304L134.833 147.646H137.653H138.016L138.128 147.3L139 144.618Z" stroke="#FFCD49"/>
<circle cx="55" cy="12" r="4.5" stroke="#DC143C"/>
<circle opacity="0.5" cx="165" cy="124" r="2.5" stroke="#DC143C"/>
<circle opacity="0.5" cx="50" cy="154" r="4.5" stroke="#DC143C"/>
<path d="M5.60289 120.75L9.5 114L13.3971 120.75H5.60289Z" stroke="#5B46F4"/>
<path d="M152.603 38.75L156.5 32L160.397 38.75H152.603Z" stroke="#5B46F4"/>
<path d="M130.979 6.71885L138 1.61803L145.021 6.71885L142.339 14.9721H133.661L130.979 6.71885Z" stroke="#03A9F4"/>
<path opacity="0.5" d="M92.808 158.3L96.5 155.618L100.192 158.3L98.7818 162.641H94.2182L92.808 158.3Z" stroke="#03A9F4"/>
<defs>
<filter id="filter0_d_79_1964" x="10" y="0" width="163" height="163" filterUnits="userSpaceOnUse" color-interpolation-filters="sRGB">
<feFlood flood-opacity="0" result="BackgroundImageFix"/>
<feColorMatrix in="SourceAlpha" type="matrix" values="0 0 0 0 0 0 0 0 0 0 0 0 0 0 0 0 0 0 127 0" result="hardAlpha"/>
<feOffset/>
<feGaussianBlur stdDeviation="8.5"/>
<feComposite in2="hardAlpha" operator="out"/>
<feColorMatrix type="matrix" values="0 0 0 0 0.156863 0 0 0 0 0.705882 0 0 0 0 0.27451 0 0 0 0.42 0"/>
<feBlend mode="normal" in2="BackgroundImageFix" result="effect1_dropShadow_79_1964"/>
<feBlend mode="normal" in="SourceGraphic" in2="effect1_dropShadow_79_1964" result="shape"/>
</filter>
<clipPath id="clip0_79_1964">
<rect width="50" height="50" fill="white" transform="translate(67 56)"/>
</clipPath>
</defs>
</svg>
