<svg width="115" height="107" viewBox="0 0 115 107" fill="none" xmlns="http://www.w3.org/2000/svg">
<g clip-path="url(#clip0_0_3)">
<path d="M102 0.5H13C6.09644 0.5 0.5 6.09644 0.5 13V94C0.5 100.904 6.09644 106.5 13 106.5H102C108.904 106.5 114.5 100.904 114.5 94V13C114.5 6.09644 108.904 0.5 102 0.5Z" fill="white" stroke="#5B46F4" stroke-dasharray="5 5"/>
<mask id="mask0_0_3" style="mask-type:luminance" maskUnits="userSpaceOnUse" x="38" y="34" width="40" height="40">
<path d="M78 34H38V74H78V34Z" fill="white"/>
</mask>
<g mask="url(#mask0_0_3)">
<path d="M69.6667 34H46.3333C44.124 34.0026 42.0059 34.8815 40.4437 36.4437C38.8815 38.0059 38.0026 40.124 38 42.3333V65.6667C38.0026 67.876 38.8815 69.9941 40.4437 71.5563C42.0059 73.1185 44.124 73.9974 46.3333 74H69.6667C71.876 73.9974 73.9941 73.1185 75.5563 71.5563C77.1185 69.9941 77.9974 67.876 78 65.6667V42.3333C77.9974 40.124 77.1185 38.0059 75.5563 36.4437C73.9941 34.8815 71.876 34.0026 69.6667 34ZM46.3333 37.3333H69.6667C70.9927 37.3333 72.2645 37.8601 73.2022 38.7978C74.1399 39.7355 74.6667 41.0073 74.6667 42.3333V65.6667C74.6638 66.4091 74.4929 67.1413 74.1667 67.8083L58.895 52.5367C58.1211 51.7626 57.2024 51.1486 56.1912 50.7297C55.18 50.3107 54.0962 50.0951 53.0017 50.0951C51.9071 50.0951 50.8233 50.3107 49.8121 50.7297C48.8009 51.1486 47.8822 51.7626 47.1083 52.5367L41.3333 58.31V42.3333C41.3333 41.0073 41.8601 39.7355 42.7978 38.7978C43.7355 37.8601 45.0073 37.3333 46.3333 37.3333ZM46.3333 70.6667C45.0073 70.6667 43.7355 70.1399 42.7978 69.2022C41.8601 68.2645 41.3333 66.9927 41.3333 65.6667V63.0233L49.4633 54.8933C49.9277 54.4287 50.479 54.0601 51.0858 53.8086C51.6927 53.5572 52.3431 53.4277 53 53.4277C53.6569 53.4277 54.3073 53.5572 54.9142 53.8086C55.521 54.0601 56.0723 54.4287 56.5367 54.8933L71.8083 70.1667C71.1413 70.4929 70.4091 70.6638 69.6667 70.6667H46.3333Z" fill="#5B46F4"/>
<path d="M64.6668 51.5C65.8206 51.5 66.9484 51.1579 67.9077 50.5169C68.8669 49.8759 69.6146 48.9649 70.0561 47.899C70.4976 46.8331 70.6132 45.6602 70.3881 44.5286C70.163 43.3971 69.6074 42.3577 68.7916 41.5419C67.9758 40.7261 66.9364 40.1705 65.8049 39.9454C64.6733 39.7203 63.5004 39.8359 62.4345 40.2774C61.3686 40.7189 60.4576 41.4666 59.8166 42.4258C59.1756 43.3851 58.8335 44.5129 58.8335 45.6667C58.8335 47.2138 59.4481 48.6975 60.542 49.7915C61.636 50.8854 63.1197 51.5 64.6668 51.5ZM64.6668 43.1667C65.1613 43.1667 65.6446 43.3133 66.0558 43.588C66.4669 43.8627 66.7873 44.2531 66.9765 44.71C67.1657 45.1668 67.2153 45.6694 67.1188 46.1544C67.0223 46.6393 66.7842 47.0848 66.4346 47.4344C66.085 47.7841 65.6395 48.0222 65.1546 48.1186C64.6696 48.2151 64.1669 48.1656 63.7101 47.9764C63.2533 47.7871 62.8629 47.4667 62.5882 47.0556C62.3135 46.6445 62.1668 46.1611 62.1668 45.6667C62.1668 45.0036 62.4302 44.3677 62.8991 43.8989C63.3679 43.4301 64.0038 43.1667 64.6668 43.1667Z" fill="#5B46F4"/>
</g>
</g>
<defs>
<clipPath id="clip0_0_3">
<rect width="115" height="107" fill="white"/>
</clipPath>
</defs>
</svg>
