<svg width="109" height="109" viewBox="0 0 109 109" fill="none" xmlns="http://www.w3.org/2000/svg">
<g clip-path="url(#clip0_1_13)">
<path d="M54.5 108.5C84.3234 108.5 108.5 84.3234 108.5 54.5C108.5 24.6766 84.3234 0.5 54.5 0.5C24.6766 0.5 0.5 24.6766 0.5 54.5C0.5 84.3234 24.6766 108.5 54.5 108.5Z" fill="white" stroke="#5E5A80"/>
<path d="M54 22C44.6951 22 37.125 29.5701 37.125 38.875C37.125 48.1799 44.6951 55.75 54 55.75C63.3049 55.75 70.875 48.1799 70.875 38.875C70.875 29.5701 63.3049 22 54 22Z" fill="#DFDFDF"/>
<path d="M74.9958 66.7744C70.3758 62.0834 64.2511 59.5 57.75 59.5H50.25C43.749 59.5 37.6242 62.0834 33.0042 66.7744C28.4069 71.4424 25.875 77.6041 25.875 84.125C25.875 85.1605 26.7145 86 27.75 86H80.25C81.2855 86 82.125 85.1605 82.125 84.125C82.125 77.6041 79.5931 71.4424 74.9958 66.7744Z" fill="#DFDFDF"/>
<path d="M90 108C96.6274 108 102 102.627 102 96C102 89.3726 96.6274 84 90 84C83.3726 84 78 89.3726 78 96C78 102.627 83.3726 108 90 108Z" fill="#DC143C"/>
<mask id="mask0_1_13" style="mask-type:luminance" maskUnits="userSpaceOnUse" x="83" y="89" width="14" height="14">
<path d="M97 89H83V103H97V89Z" fill="white"/>
</mask>
<g mask="url(#mask0_1_13)">
<path d="M94.0833 91.3333H93.787L92.513 89.6813C92.3488 89.4701 92.1387 89.2989 91.8986 89.1809C91.6584 89.0628 91.3946 89.001 91.127 89H88.873C88.6054 89.001 88.3416 89.0628 88.1014 89.1809C87.8613 89.2989 87.6512 89.4701 87.487 89.6813L86.213 91.3333H85.9167C85.1434 91.3343 84.4021 91.6418 83.8553 92.1886C83.3085 92.7354 83.0009 93.4767 83 94.25V100.083C83.0009 100.857 83.3085 101.598 83.8553 102.145C84.4021 102.691 85.1434 102.999 85.9167 103H94.0833C94.8566 102.999 95.5979 102.691 96.1447 102.145C96.6915 101.598 96.9991 100.857 97 100.083V94.25C96.9991 93.4767 96.6915 92.7354 96.1447 92.1886C95.5979 91.6418 94.8566 91.3343 94.0833 91.3333ZM88.411 90.3942C88.4656 90.3236 88.5357 90.2665 88.6157 90.227C88.6958 90.1876 88.7838 90.167 88.873 90.1667H91.127C91.2162 90.1671 91.3042 90.1877 91.3842 90.2271C91.4643 90.2666 91.5343 90.3237 91.589 90.3942L92.3135 91.3333H87.6865L88.411 90.3942ZM95.8333 100.083C95.8333 100.547 95.649 100.993 95.3208 101.321C94.9926 101.649 94.5475 101.833 94.0833 101.833H85.9167C85.4525 101.833 85.0074 101.649 84.6792 101.321C84.351 100.993 84.1667 100.547 84.1667 100.083V94.25C84.1667 93.7859 84.351 93.3408 84.6792 93.0126C85.0074 92.6844 85.4525 92.5 85.9167 92.5H94.0833C94.5475 92.5 94.9926 92.6844 95.3208 93.0126C95.649 93.3408 95.8333 93.7859 95.8333 94.25V100.083Z" fill="white"/>
<path d="M90 93.6667C89.3078 93.6667 88.6311 93.8719 88.0555 94.2565C87.4799 94.6411 87.0313 95.1877 86.7664 95.8273C86.5015 96.4668 86.4322 97.1705 86.5673 97.8495C86.7023 98.5284 87.0356 99.1521 87.5251 99.6415C88.0146 100.131 88.6383 100.464 89.3172 100.599C89.9961 100.734 90.6999 100.665 91.3394 100.4C91.9789 100.135 92.5256 99.6867 92.9101 99.1112C93.2947 98.5356 93.5 97.8589 93.5 97.1667C93.4991 96.2387 93.13 95.349 92.4739 94.6928C91.8177 94.0366 90.928 93.6676 90 93.6667ZM90 99.5C89.5385 99.5 89.0874 99.3632 88.7037 99.1068C88.32 98.8504 88.0209 98.486 87.8443 98.0596C87.6677 97.6332 87.6215 97.1641 87.7115 96.7115C87.8015 96.2588 88.0238 95.8431 88.3501 95.5167C88.6764 95.1904 89.0922 94.9682 89.5448 94.8782C89.9974 94.7881 90.4666 94.8343 90.8929 95.0109C91.3193 95.1875 91.6837 95.4866 91.9401 95.8703C92.1965 96.254 92.3333 96.7052 92.3333 97.1667C92.3333 97.7855 92.0875 98.379 91.6499 98.8166C91.2123 99.2542 90.6188 99.5 90 99.5Z" fill="white"/>
</g>
</g>
<defs>
<clipPath id="clip0_1_13">
<rect width="109" height="109" fill="white"/>
</clipPath>
</defs>
</svg>
