<svg width="20" height="20" viewBox="0 0 20 20" fill="none" xmlns="http://www.w3.org/2000/svg">
<g clip-path="url(#clip0_73_314)">
<path d="M10 20C15.5228 20 20 15.5228 20 10C20 4.47715 15.5228 0 10 0C4.47715 0 0 4.47715 0 10C0 15.5228 4.47715 20 10 20Z" fill="#03A9F4"/>
<path d="M16.4777 5.98291C15.9904 6.1957 15.475 6.33707 14.9474 6.40264C15.5036 6.07282 15.9194 5.5503 16.1158 4.93422C15.5953 5.24322 15.0256 5.46083 14.4316 5.57764C14.0676 5.18837 13.5949 4.91763 13.075 4.80065C12.555 4.68368 12.0119 4.72587 11.5163 4.92174C11.0206 5.11761 10.5954 5.4581 10.2959 5.89892C9.99637 6.33974 9.83644 6.86049 9.83689 7.39343C9.83503 7.59685 9.85577 7.79986 9.89874 7.9987C8.84212 7.9468 7.80834 7.67258 6.86492 7.19395C5.9215 6.71533 5.08966 6.04306 4.42374 5.22106C4.08145 5.80581 3.9754 6.49921 4.12728 7.15953C4.27915 7.81986 4.67748 8.39725 5.24084 8.7737C4.82035 8.76236 4.40876 8.64999 4.04084 8.44606V8.47501C4.04202 9.08794 4.25418 9.68178 4.64164 10.1567C5.02911 10.6316 5.56826 10.9587 6.16847 11.0829C5.94133 11.1426 5.70726 11.1718 5.47242 11.1697C5.30332 11.1729 5.13438 11.1579 4.96847 11.125C5.14043 11.6521 5.47149 12.1131 5.91611 12.4443C6.36073 12.7756 6.89707 12.961 7.45137 12.975C6.51206 13.7092 5.3541 14.108 4.16189 14.1079C3.94947 14.1097 3.73716 14.0974 3.52637 14.0711C4.74199 14.8548 6.15895 15.2689 7.60531 15.2632C12.4935 15.2632 15.1658 11.2145 15.1658 7.70528C15.1658 7.58817 15.1658 7.47501 15.1566 7.36185C15.6771 6.98625 16.1247 6.51897 16.4777 5.98291Z" fill="white"/>
</g>
<defs>
<clipPath id="clip0_73_314">
<rect width="20" height="20" fill="white"/>
</clipPath>
</defs>
</svg>
