<svg width="16" height="16" viewBox="0 0 16 16" fill="none" xmlns="http://www.w3.org/2000/svg">
<g clip-path="url(#clip0_5_110)">
<path d="M8 16C12.4183 16 16 12.4183 16 8C16 3.58172 12.4183 0 8 0C3.58172 0 0 3.58172 0 8C0 12.4183 3.58172 16 8 16Z" fill="#E2F6FF"/>
<mask id="mask0_5_110" style="mask-type:luminance" maskUnits="userSpaceOnUse" x="3" y="3" width="10" height="10">
<path d="M13 3H3V13H13V3Z" fill="white"/>
</mask>
<g mask="url(#mask0_5_110)">
<path d="M13 4.89938C12.6281 5.0625 12.2319 5.17062 11.8187 5.22312C12.2437 4.96938 12.5681 4.57062 12.7206 4.09C12.3244 4.32625 11.8869 4.49313 11.4206 4.58625C11.0444 4.18563 10.5081 3.9375 9.92312 3.9375C8.78813 3.9375 7.87437 4.85875 7.87437 5.98813C7.87437 6.15062 7.88812 6.30687 7.92188 6.45562C6.2175 6.3725 4.70938 5.55563 3.69625 4.31125C3.51937 4.61813 3.41563 4.96938 3.41563 5.3475C3.41563 6.0575 3.78125 6.68687 4.32625 7.05125C3.99687 7.045 3.67375 6.94938 3.4 6.79875C3.4 6.805 3.4 6.81312 3.4 6.82125C3.4 7.8175 4.11062 8.645 5.0425 8.83562C4.87562 8.88125 4.69375 8.90312 4.505 8.90312C4.37375 8.90312 4.24125 8.89563 4.11687 8.86812C4.3825 9.68 5.13625 10.2769 6.0325 10.2962C5.335 10.8419 4.44938 11.1706 3.49063 11.1706C3.3225 11.1706 3.16125 11.1631 3 11.1425C3.90812 11.7281 4.98438 12.0625 6.145 12.0625C9.9175 12.0625 11.98 8.9375 11.98 6.22875C11.98 6.13812 11.9769 6.05063 11.9725 5.96375C12.3794 5.675 12.7212 5.31438 13 4.89938Z" fill="#03A9F4"/>
</g>
</g>
<defs>
<clipPath id="clip0_5_110">
<rect width="16" height="16" fill="white"/>
</clipPath>
</defs>
</svg>
