<svg width="56" height="56" viewBox="0 0 56 56" fill="none" xmlns="http://www.w3.org/2000/svg">
<g clip-path="url(#clip0_1_48)">
<path d="M46 0.5H10C4.75329 0.5 0.5 4.75329 0.5 10V46C0.5 51.2467 4.75329 55.5 10 55.5H46C51.2467 55.5 55.5 51.2467 55.5 46V10C55.5 4.75329 51.2467 0.5 46 0.5Z" fill="#EBFFEF" stroke="#28B446"/>
<mask id="mask0_1_48" style="mask-type:luminance" maskUnits="userSpaceOnUse" x="13" y="13" width="30" height="30">
<path d="M43 13H13V43H43V13Z" fill="white"/>
</mask>
<g mask="url(#mask0_1_48)">
<path d="M27.9766 13C20.0228 13 13.5128 19.2288 13.0234 27.0625H23.2891V24.25C23.2891 23.7325 23.7091 23.3125 24.2266 23.3125H31.7266C32.2441 23.3125 32.6641 23.7325 32.6641 24.25V31.75C32.6641 32.2675 32.2441 32.6875 31.7266 32.6875H24.2266C23.7091 32.6875 23.2891 32.2675 23.2891 31.75V28.9375H13.0234C13.5128 36.7712 20.0228 43 27.9766 43C36.2472 43 42.9766 36.2706 42.9766 28C42.9766 19.7294 36.2472 13 27.9766 13Z" fill="#28B446"/>
</g>
</g>
<defs>
<clipPath id="clip0_1_48">
<rect width="56" height="56" fill="white"/>
</clipPath>
</defs>
</svg>
