<svg width="56" height="56" viewBox="0 0 56 56" fill="none" xmlns="http://www.w3.org/2000/svg">
<g clip-path="url(#clip0_1_23)">
<path d="M46 0.5H10C4.75329 0.5 0.5 4.75329 0.5 10V46C0.5 51.2467 4.75329 55.5 10 55.5H46C51.2467 55.5 55.5 51.2467 55.5 46V10C55.5 4.75329 51.2467 0.5 46 0.5Z" fill="white" stroke="#FF5C00"/>
<mask id="mask0_1_23" style="mask-type:luminance" maskUnits="userSpaceOnUse" x="15" y="11" width="29" height="34">
<path d="M44 11H15V45H44V11Z" fill="white"/>
</mask>
<g mask="url(#mask0_1_23)">
<path d="M27.1449 45C25.2764 45 23.7583 43.4233 23.7583 41.4828V40.1486C23.7583 39.5422 24.2254 39.0571 24.8093 39.0571C25.3932 39.0571 25.8603 39.5422 25.8603 40.1486V41.4828C25.8603 42.2105 26.4442 42.8169 27.1449 42.8169C27.8455 42.8169 28.4294 42.2105 28.4294 41.4828V12.0916C28.4294 11.4851 28.8966 11 29.4804 11C30.0643 11 30.5315 11.4851 30.5315 12.0916V41.4828C30.5315 43.4233 29.0133 45 27.1449 45Z" fill="#FFD8C2"/>
<path d="M44 28.7479C43.2993 27.535 41.9758 26.7265 40.4966 26.7265C38.8617 26.7265 37.4604 27.7372 36.7987 29.1521C36.1369 27.6967 34.7356 26.7265 33.1007 26.7265C31.4658 26.7265 30.0644 27.7372 29.4027 29.1521C28.7409 27.6967 27.3396 26.7265 25.7047 26.7265C24.0698 26.7265 22.6685 27.7372 22.0067 29.1521C21.345 27.6967 19.9436 26.7265 18.3087 26.7265C16.9463 26.7265 15.7396 27.4137 15 28.5053C15.545 20.7027 21.8121 14.5576 29.4805 14.5576C37.149 14.5576 43.5329 20.824 44 28.7479Z" fill="#FF5C00"/>
<path d="M22.0065 29.2734C22.0065 29.2734 21.7729 29.1521 21.7729 29.0309C21.7729 28.9096 21.8897 17.8323 29.3636 14.3555H29.4803H29.5971C29.675 14.3555 36.8763 18.3578 37.032 29.0309C37.032 29.1521 36.9152 29.2734 36.7985 29.2734C36.6427 29.2734 36.5649 29.1521 36.5649 29.0309C36.4092 19.3281 30.3367 15.3662 29.4803 14.8406C25.8213 16.6194 24.0307 20.3388 23.2132 23.1284C22.279 26.2413 22.279 28.9904 22.279 28.9904C22.279 29.1117 22.1622 29.233 22.0454 29.233L22.0065 29.2734Z" fill="#FFCEB3"/>
<path d="M29.4025 29.3949C29.4025 29.3949 29.1689 29.2736 29.1689 29.1523V14.5578C29.1689 14.5578 29.2857 14.3152 29.4025 14.3152C29.5193 14.3152 29.6361 14.4365 29.6361 14.5578V29.1523C29.6361 29.1523 29.5193 29.3949 29.4025 29.3949Z" fill="#FFCEB3"/>
</g>
</g>
<defs>
<clipPath id="clip0_1_23">
<rect width="56" height="56" fill="white"/>
</clipPath>
</defs>
</svg>
