<svg width="12" height="14" viewBox="0 0 12 14" fill="none" xmlns="http://www.w3.org/2000/svg">
<path d="M11.25 14H10.0833V11.0583C10.0829 10.6009 9.90099 10.1625 9.57761 9.83907C9.25422 9.51568 8.81575 9.3338 8.35842 9.33334H3.64158C3.18425 9.3338 2.74578 9.51568 2.42239 9.83907C2.09901 10.1625 1.91713 10.6009 1.91667 11.0583V14H0.75V11.0583C0.750926 10.2916 1.05587 9.5567 1.59795 9.01462C2.14002 8.47254 2.87497 8.1676 3.64158 8.16667H8.35842C9.12503 8.1676 9.85998 8.47254 10.4021 9.01462C10.9441 9.5567 11.2491 10.2916 11.25 11.0583V14Z" fill="#5B46F4"/>
<path d="M6 7C5.30777 7 4.63108 6.79473 4.05551 6.41014C3.47993 6.02556 3.03133 5.47893 2.76642 4.83939C2.50152 4.19985 2.4322 3.49612 2.56725 2.81719C2.7023 2.13825 3.03564 1.51461 3.52513 1.02513C4.01461 0.535644 4.63825 0.202301 5.31719 0.0672531C5.99612 -0.0677952 6.69985 0.0015165 7.33939 0.266423C7.97893 0.53133 8.52556 0.979934 8.91014 1.55551C9.29473 2.13108 9.5 2.80777 9.5 3.5C9.49907 4.42797 9.13003 5.31768 8.47385 5.97385C7.81768 6.63003 6.92797 6.99907 6 7ZM6 1.16667C5.53851 1.16667 5.08739 1.30352 4.70367 1.55991C4.31996 1.8163 4.02089 2.18071 3.84428 2.60707C3.66768 3.03343 3.62147 3.50259 3.7115 3.95521C3.80153 4.40783 4.02376 4.8236 4.35009 5.14992C4.67641 5.47624 5.09217 5.69847 5.54479 5.7885C5.99741 5.87853 6.46657 5.83232 6.89293 5.65572C7.31929 5.47912 7.68371 5.18005 7.9401 4.79633C8.19649 4.41262 8.33333 3.96149 8.33333 3.5C8.33333 2.88116 8.0875 2.28767 7.64992 1.85009C7.21233 1.4125 6.61884 1.16667 6 1.16667Z" fill="#5B46F4"/>
</svg>
