<svg width="12" height="12" viewBox="0 0 12 12" fill="none" xmlns="http://www.w3.org/2000/svg">
<g clip-path="url(#clip0_192_2088)">
<path d="M2.5 10H6.5C7.8785 10 9 8.8785 9 7.5V4.5C9 3.1215 7.8785 2 6.5 2H2.5C1.1215 2 0 3.1215 0 4.5V7.5C0 8.8785 1.1215 10 2.5 10ZM12 4.1565V7.816C12 8.1945 11.79 8.5345 11.4515 8.7035C11.31 8.774 11.158 8.809 11.007 8.809C10.7965 8.809 10.5885 8.7415 10.4125 8.6095C10.394 8.5955 10 8.2045 10 8.2045V3.772C10 3.772 10.393 3.3775 10.4125 3.363C10.7145 3.136 11.112 3.0995 11.4515 3.269C11.791 3.4385 12 3.778 12 4.1565Z" fill="white"/>
</g>
<defs>
<clipPath id="clip0_192_2088">
<rect width="12" height="12" fill="white"/>
</clipPath>
</defs>
</svg>
