<svg width="20" height="20" viewBox="0 0 20 20" fill="none" xmlns="http://www.w3.org/2000/svg">
<g clip-path="url(#clip0_73_327)">
<path d="M10 20C15.5228 20 20 15.5228 20 10C20 4.47715 15.5228 0 10 0C4.47715 0 0 4.47715 0 10C0 15.5228 4.47715 20 10 20Z" fill="#29A71A"/>
<path d="M14.409 5.59091C13.3686 4.54011 11.9869 3.89569 10.5132 3.77389C9.0395 3.65209 7.57078 4.06092 6.37196 4.92664C5.17314 5.79236 4.32315 7.05798 3.97529 8.49522C3.62744 9.93245 3.80463 11.4467 4.4749 12.7648L3.81695 15.9591C3.81012 15.9909 3.80993 16.0237 3.81638 16.0556C3.82283 16.0875 3.83579 16.1177 3.85445 16.1443C3.88178 16.1847 3.92079 16.2159 3.96627 16.2335C4.01176 16.2512 4.06155 16.2546 4.10899 16.2432L7.23968 15.5011C8.55406 16.1544 10.0576 16.3202 11.4828 15.969C12.9079 15.6178 14.1623 14.7724 15.0226 13.5831C15.8829 12.3939 16.2934 10.938 16.181 9.47453C16.0687 8.01105 15.4408 6.63488 14.409 5.59091ZM13.4329 13.3818C12.713 14.0997 11.786 14.5735 10.7826 14.7366C9.77915 14.8997 8.74982 14.7438 7.83968 14.2909L7.40331 14.075L5.48399 14.5295L5.48968 14.5057L5.8874 12.5739L5.67377 12.1523C5.20872 11.2389 5.04467 10.2019 5.20511 9.18959C5.36556 8.17732 5.84227 7.2418 6.56695 6.51705C7.47752 5.60675 8.71236 5.09538 9.9999 5.09538C11.2874 5.09538 12.5223 5.60675 13.4329 6.51705C13.4406 6.52594 13.449 6.53429 13.4579 6.54205C14.3571 7.45468 14.8592 8.68583 14.8545 9.96708C14.8498 11.2483 14.3388 12.4758 13.4329 13.3818Z" fill="white"/>
<path d="M13.2625 11.9648C13.0272 12.3352 12.6556 12.7886 12.1886 12.9011C11.3704 13.0989 10.1147 12.9079 8.55224 11.4511L8.53292 11.4341C7.15906 10.1602 6.80224 9.09999 6.8886 8.25908C6.93633 7.78181 7.33406 7.34999 7.66928 7.06817C7.72228 7.02294 7.78513 6.99073 7.8528 6.97413C7.92047 6.95753 7.99109 6.957 8.059 6.97257C8.12692 6.98814 8.19025 7.01938 8.24393 7.06381C8.29761 7.10823 8.34015 7.1646 8.36815 7.2284L8.87383 8.36476C8.90669 8.43845 8.91887 8.51968 8.90906 8.59976C8.89925 8.67984 8.86782 8.75574 8.81815 8.81931L8.56246 9.15113C8.5076 9.21964 8.4745 9.303 8.46741 9.39049C8.46032 9.47798 8.47958 9.56558 8.52269 9.64204C8.66587 9.89317 9.00906 10.2625 9.38974 10.6045C9.81701 10.9909 10.2909 11.3443 10.5909 11.4648C10.6711 11.4976 10.7594 11.5056 10.8443 11.4877C10.9291 11.4699 11.0067 11.4271 11.067 11.3648L11.3636 11.0659C11.4208 11.0095 11.492 10.9692 11.5699 10.9493C11.6477 10.9293 11.7295 10.9303 11.8068 10.9523L13.0079 11.2932C13.0742 11.3135 13.1349 11.3487 13.1855 11.3961C13.236 11.4435 13.2751 11.5018 13.2997 11.5666C13.3242 11.6314 13.3336 11.701 13.3272 11.77C13.3207 11.839 13.2986 11.9056 13.2625 11.9648Z" fill="white"/>
</g>
<defs>
<clipPath id="clip0_73_327">
<rect width="20" height="20" fill="white"/>
</clipPath>
</defs>
</svg>
