<svg width="96" height="76" viewBox="0 0 96 76" fill="none" xmlns="http://www.w3.org/2000/svg">
<g clip-path="url(#clip0_3_86)">
<mask id="mask0_3_86" style="mask-type:luminance" maskUnits="userSpaceOnUse" x="0" y="0" width="96" height="76">
<path d="M96 0H0V76H96V0Z" fill="white"/>
</mask>
<g mask="url(#mask0_3_86)">
<path d="M79.0804 38.5508C79.0804 44.6699 76.5057 50.1772 72.4597 54.2158C70.498 51.7681 67.5555 50.1772 63.8774 50.1772C65.839 40.3865 55.5402 32.7987 46.9578 37.3269C45.6092 33.0435 42.544 29.6168 38.498 27.781C42.2988 21.2947 49.2873 16.8889 57.3793 16.8889C69.3946 16.8889 79.0804 26.5572 79.0804 38.5508Z" fill="url(#paint0_linear_3_86)"/>
<path d="M57.3794 12.1159C56.0307 12.1159 54.9272 11.0145 54.9272 9.66828V2.44766C54.9272 1.10145 56.0307 0 57.3794 0C58.728 0 59.8315 1.10145 59.8315 2.44766V9.66828C59.8315 11.0145 58.728 12.1159 57.3794 12.1159Z" fill="url(#paint1_linear_3_86)"/>
<path d="M93.6707 40.9984H86.437C85.0883 40.9984 83.9849 39.8969 83.9849 38.5507C83.9849 37.2045 85.0883 36.103 86.437 36.103H93.6707C95.0193 36.103 96.1228 37.2045 96.1228 38.5507C96.1228 39.8969 95.0193 40.9984 93.6707 40.9984Z" fill="url(#paint2_linear_3_86)"/>
<path d="M77.8546 20.5603C75.7703 20.5603 74.6668 17.9903 76.1381 16.3993L81.2875 11.2592C82.2684 10.2801 83.7396 10.2801 84.7205 11.2592C85.7013 12.2383 85.7013 13.7069 84.7205 14.6859L79.5711 19.826C79.5711 19.826 78.4676 20.5603 77.8546 20.5603Z" fill="url(#paint3_linear_3_86)"/>
<path d="M83.0039 66.5764C82.3908 66.5764 81.7778 66.3317 81.2874 65.8421L76.138 60.702C75.1571 59.723 75.1571 58.2544 76.138 57.2753C77.1188 56.2962 78.5901 56.2962 79.5709 57.2753L84.7203 62.4154C86.1916 63.884 85.0882 66.5764 83.0039 66.5764Z" fill="url(#paint4_linear_3_86)"/>
<path d="M36.9043 20.5603C36.2912 20.5603 35.6782 20.3156 35.1878 19.826L30.0384 14.6859C29.0575 13.7069 29.0575 12.2383 30.0384 11.2592C31.0192 10.2801 32.4905 10.2801 33.4713 11.2592L38.6207 16.3993C40.092 17.8679 38.9886 20.5603 36.9043 20.5603Z" fill="url(#paint5_linear_3_86)"/>
<path d="M60.0767 54.8278C62.0384 45.0371 51.7395 37.4494 43.0345 41.9776C41.0728 35.736 35.3104 31.0854 28.3219 31.0854C19.3717 31.0854 12.2606 38.7956 12.9962 47.852C5.63989 48.4639 -0.122559 54.583 -0.122559 61.926C-0.122559 69.269 6.25292 76.1225 14.0997 76.1225H60.1993C66.0843 76.1225 70.866 71.3495 70.866 65.4751C70.866 59.6007 66.4522 54.8278 59.9541 54.8278H60.0767Z" fill="url(#paint6_linear_3_86)"/>
</g>
</g>
<defs>
<linearGradient id="paint0_linear_3_86" x1="32.9808" y1="7.09826" x2="80.7227" y2="48.4271" gradientUnits="userSpaceOnUse">
<stop stop-color="#FAB300"/>
<stop offset="1" stop-color="#F6DB00"/>
</linearGradient>
<linearGradient id="paint1_linear_3_86" x1="43.8928" y1="-5.50725" x2="91.635" y2="35.6992" gradientUnits="userSpaceOnUse">
<stop stop-color="#FAB300"/>
<stop offset="1" stop-color="#F6DB00"/>
</linearGradient>
<linearGradient id="paint2_linear_3_86" x1="41.686" y1="-2.93723" x2="89.4282" y2="38.2692" gradientUnits="userSpaceOnUse">
<stop stop-color="#FAB300"/>
<stop offset="1" stop-color="#F6DB00"/>
</linearGradient>
<linearGradient id="paint3_linear_3_86" x1="49.0423" y1="-11.5041" x2="96.7843" y2="29.8247" gradientUnits="userSpaceOnUse">
<stop stop-color="#FAB300"/>
<stop offset="1" stop-color="#F6DB00"/>
</linearGradient>
<linearGradient id="paint4_linear_3_86" x1="26.2376" y1="14.9307" x2="73.9798" y2="56.1371" gradientUnits="userSpaceOnUse">
<stop stop-color="#FAB300"/>
<stop offset="1" stop-color="#F6DB00"/>
</linearGradient>
<linearGradient id="paint5_linear_3_86" x1="29.4253" y1="11.2592" x2="77.0446" y2="52.5878" gradientUnits="userSpaceOnUse">
<stop stop-color="#FAB300"/>
<stop offset="1" stop-color="#F6DB00"/>
</linearGradient>
<linearGradient id="paint6_linear_3_86" x1="4.71725e-05" y1="53.4816" x2="70.9886" y2="53.4816" gradientUnits="userSpaceOnUse">
<stop stop-color="#437AFF"/>
<stop offset="1" stop-color="#67A4FE"/>
</linearGradient>
<clipPath id="clip0_3_86">
<rect width="96" height="76" fill="white"/>
</clipPath>
</defs>
</svg>
