<svg width="56" height="56" viewBox="0 0 56 56" fill="none" xmlns="http://www.w3.org/2000/svg">
<g clip-path="url(#clip0_1_2)">
<path d="M46 0.5H10C4.75329 0.5 0.5 4.75329 0.5 10V46C0.5 51.2467 4.75329 55.5 10 55.5H46C51.2467 55.5 55.5 51.2467 55.5 46V10C55.5 4.75329 51.2467 0.5 46 0.5Z" fill="white" stroke="#437AFF"/>
<mask id="mask0_1_2" style="mask-type:luminance" maskUnits="userSpaceOnUse" x="13" y="14" width="31" height="26">
<path d="M44 14H13V40H44V14Z" fill="white"/>
</mask>
<g mask="url(#mask0_1_2)">
<path d="M28.3987 22.7492H13.9725C13.4458 22.7492 13 22.2952 13 21.7587C13 21.2222 13.4458 20.7683 13.9725 20.7683H28.3987C30.0196 20.7683 31.3163 19.4476 31.3163 17.7968C31.3163 16.8063 30.5059 15.981 29.5333 15.981H29.2092C28.2366 15.981 27.4261 16.8063 27.4261 17.7968C27.4261 18.3333 26.9804 18.7873 26.4536 18.7873C25.9268 18.7873 25.481 18.3333 25.481 17.7968C25.481 15.6921 27.1425 14 29.2092 14H29.5333C31.6 14 33.2614 15.6921 33.2614 17.7968C33.2614 20.5206 31.0732 22.7492 28.3987 22.7492Z" fill="#437AFF"/>
<path d="M29.5333 39.9999H29.2092C27.1425 39.9999 25.481 38.3079 25.481 36.2031C25.481 35.6666 25.9268 35.2126 26.4536 35.2126C26.9804 35.2126 27.4261 35.6666 27.4261 36.2031C27.4261 37.1936 28.2366 38.019 29.2092 38.019H29.5333C30.5059 38.019 31.3163 37.1936 31.3163 36.2031C31.3163 34.5523 30.0196 33.2317 28.3987 33.2317H13.9725C13.4458 33.2317 13 32.7777 13 32.2412C13 31.7047 13.4458 31.2507 13.9725 31.2507H28.3987C31.0732 31.2507 33.2614 33.4793 33.2614 36.2031C33.2614 38.3079 31.6 39.9999 29.5333 39.9999Z" fill="#437AFF"/>
<path d="M39.1373 27.9904H13.9725C13.4458 27.9904 13 27.5364 13 26.9999C13 26.4634 13.4458 26.0095 13.9725 26.0095H39.1373C40.7582 26.0095 42.0549 24.6888 42.0549 23.038C42.0549 22.0476 41.2444 21.2222 40.2719 21.2222H39.9477C38.9752 21.2222 38.1647 22.0476 38.1647 23.038C38.1647 23.5745 37.719 24.0285 37.1922 24.0285C36.6654 24.0285 36.2196 23.5745 36.2196 23.038C36.2196 20.9333 37.881 19.2412 39.9477 19.2412H40.2719C42.3386 19.2412 44 20.9333 44 23.038C44 25.7618 41.8118 27.9904 39.1373 27.9904Z" fill="#437AFF"/>
</g>
</g>
<defs>
<clipPath id="clip0_1_2">
<rect width="56" height="56" fill="white"/>
</clipPath>
</defs>
</svg>
